<?xml version="1.0" standalone="no"?>
<!DOCTYPE svg PUBLIC "-//W3C//DTD SVG 20010904//EN"
 "http://www.w3.org/TR/2001/REC-SVG-20010904/DTD/svg10.dtd">
<svg version="1.0" xmlns="http://www.w3.org/2000/svg"
 width="612.000000pt" height="440.000000pt" viewBox="0 0 612.000000 440.000000"
 preserveAspectRatio="xMidYMid meet">

<g transform="translate(0.000000,440.000000) scale(0.100000,-0.100000)"
fill="#000000" stroke="none">
<path d="M3370 4260 c0 -5 -10 -11 -22 -11 -19 -1 -17 -3 7 -9 17 -4 24 -8 18
-9 -7 0 -13 -6 -13 -11 0 -6 14 -3 32 6 30 16 31 17 13 30 -22 16 -35 18 -35
4z"/>
<path d="M4540 4252 c0 -5 -13 -7 -30 -4 -16 2 -30 0 -30 -6 0 -14 72 -21 88
-9 11 8 11 12 0 18 -17 11 -28 11 -28 1z"/>
<path d="M3230 4240 c-11 -7 -5 -10 23 -10 20 0 37 4 37 8 0 11 -43 13 -60 2z"/>
<path d="M517 4223 c-14 -13 -6 -40 18 -63 44 -42 25 -97 -24 -70 -12 6 -21 7
-21 1 0 -26 66 -27 80 -2 15 29 13 37 -21 75 -30 34 -31 63 -3 52 8 -3 14 -1
14 4 0 11 -33 14 -43 3z"/>
<path d="M933 4210 c-23 -9 -32 -40 -13 -40 6 0 9 6 8 13 -2 8 15 14 47 18 28
3 43 7 35 8 -8 1 -24 3 -35 6 -11 2 -30 0 -42 -5z"/>
<path d="M1075 4154 c-4 -41 -3 -70 3 -76 13 -13 42 -3 42 13 0 8 -4 8 -15 -1
-12 -10 -15 -10 -16 1 -2 29 2 95 7 112 3 9 1 17 -4 17 -5 0 -13 -30 -17 -66z"/>
<path d="M1760 4210 c0 -5 9 -10 21 -10 l20 0 -20 -27 c-12 -14 -19 -28 -17
-30 9 -9 66 -11 66 -3 0 6 -12 10 -27 10 l-27 0 27 28 c15 16 24 31 20 35 -10
11 -63 8 -63 -3z"/>
<path d="M2089 4211 c12 -8 12 -12 2 -25 -12 -14 -10 -16 9 -16 13 0 20 -5 17
-12 -2 -7 -14 -13 -26 -12 -24 1 -28 -11 -6 -20 34 -12 65 31 35 49 -5 3 -10
15 -10 26 0 11 -7 19 -17 19 -15 0 -15 -2 -4 -9z"/>
<path d="M625 4200 c-3 -6 -4 -19 0 -29 3 -12 0 -21 -10 -25 -22 -8 -16 -60 8
-64 11 -2 17 3 17 15 1 16 2 17 13 2 14 -18 67 -23 67 -6 0 6 7 2 15 -9 19
-26 19 -4 -1 24 -14 20 -14 23 0 28 9 3 14 10 11 15 -11 16 -35 -4 -36 -30
l-1 -26 -10 28 c-10 27 -37 38 -39 15 0 -7 -7 1 -14 17 -9 21 -10 34 -3 43 7
8 7 12 0 12 -6 0 -14 -5 -17 -10z m8 -91 c-4 -13 -9 -17 -16 -10 -12 12 -1 45
12 37 5 -3 7 -15 4 -27z m48 -12 c-8 -8 -11 -3 -11 19 1 25 2 27 11 11 8 -14
8 -22 0 -30z"/>
<path d="M1931 4188 c-1 -18 6 -31 19 -38 26 -14 25 -34 -2 -48 -14 -6 -17
-11 -8 -11 8 0 21 3 29 8 17 11 28 111 12 111 -6 0 -11 -12 -11 -26 0 -32 -22
-27 -31 7 -7 24 -7 24 -8 -3z"/>
<path d="M4501 4153 c1 -32 4 -46 6 -30 3 19 10 27 24 27 10 0 19 5 19 10 0 6
-9 10 -20 10 -34 0 -23 28 13 33 31 4 31 4 -5 5 l-38 2 1 -57z"/>
<path d="M950 4153 c0 -45 -13 -69 -30 -58 -8 5 -11 3 -8 -5 7 -22 26 -23 36
-3 15 29 24 103 12 103 -5 0 -10 -17 -10 -37z"/>
<path d="M976 4159 c-9 -44 -8 -79 2 -79 5 0 10 25 11 55 2 61 -3 71 -13 24z"/>
<path d="M1858 4183 c6 -2 18 -2 25 0 6 3 1 5 -13 5 -14 0 -19 -2 -12 -5z"/>
<path d="M2014 4179 c-10 -17 13 -36 27 -22 12 12 4 33 -11 33 -5 0 -12 -5
-16 -11z"/>
<path d="M2961 4164 c-24 -31 -19 -48 19 -64 16 -7 31 -19 33 -28 4 -15 5 -15
6 1 0 9 9 17 19 17 44 0 57 58 20 84 -34 24 -73 20 -97 -10z m46 -60 c-9 -9
-47 16 -47 31 0 7 8 21 17 31 17 16 18 15 26 -20 5 -20 7 -39 4 -42z m60 40
c6 -17 -14 -44 -33 -44 -10 0 -14 13 -14 40 0 38 1 40 21 30 11 -6 23 -18 26
-26z"/>
<path d="M3335 4180 c-11 -17 4 -46 30 -58 14 -6 25 -18 25 -26 0 -20 -28 -28
-52 -15 -11 6 -22 8 -25 6 -10 -10 40 -29 62 -23 46 12 40 37 -19 79 -21 15
-13 42 10 33 8 -3 14 -1 14 4 0 13 -37 13 -45 0z"/>
<path d="M3210 4136 c0 -24 -3 -51 -6 -60 -5 -13 1 -16 30 -16 20 0 36 4 36 9
0 4 -11 6 -25 3 -22 -4 -25 -1 -25 22 0 21 5 26 26 26 14 0 23 4 19 10 -3 6
-15 10 -26 10 -33 0 -22 28 14 33 31 4 31 4 -5 5 l-38 2 0 -44z"/>
<path d="M833 4163 c9 -2 23 -2 30 0 6 3 -1 5 -18 5 -16 0 -22 -2 -12 -5z"/>
<path d="M1858 4163 c6 -2 18 -2 25 0 6 3 1 5 -13 5 -14 0 -19 -2 -12 -5z"/>
<path d="M1014 4125 c-3 -19 -4 -40 -1 -47 2 -7 8 4 12 25 5 28 11 37 22 33 9
-4 13 -1 11 6 -2 6 -12 12 -21 14 -12 1 -18 -8 -23 -31z"/>
<path d="M5184 4152 c4 -7 -9 -12 -31 -15 l-38 -4 38 -1 c23 -1 36 -6 32 -12
-10 -15 11 -12 24 4 10 12 8 17 -10 26 -13 7 -19 8 -15 2z"/>
<path d="M3118 4143 c6 -2 18 -2 25 0 6 3 1 5 -13 5 -14 0 -19 -2 -12 -5z"/>
<path d="M824 4131 c3 -5 15 -7 26 -4 28 7 25 13 -6 13 -14 0 -23 -4 -20 -9z"/>
<path d="M4555 4129 c-4 -5 -2 -9 4 -9 6 0 8 -7 5 -15 -4 -8 -1 -15 5 -15 6 0
11 7 11 15 0 8 5 15 10 15 6 0 10 -17 11 -37 0 -32 2 -34 9 -17 5 12 13 25 19
29 7 4 8 12 1 24 -10 19 -65 27 -75 10z"/>
<path d="M1368 4123 c27 -5 28 -15 2 -38 -28 -26 -25 -35 13 -34 23 1 26 3 9
6 l-22 4 20 29 c27 37 26 40 -12 39 -24 -1 -27 -3 -10 -6z"/>
<path d="M3120 4121 c0 -5 9 -7 20 -4 11 3 20 7 20 9 0 2 -9 4 -20 4 -11 0
-20 -4 -20 -9z"/>
<path d="M5613 4089 c4 -13 10 -41 13 -61 4 -21 12 -38 19 -38 22 0 54 103 36
114 -7 5 -11 -5 -11 -26 0 -19 -6 -43 -14 -53 -12 -17 -14 -14 -20 28 -4 26
-12 50 -18 53 -8 5 -9 -1 -5 -17z"/>
<path d="M1281 4068 c-13 -38 -14 -41 -1 -33 6 4 10 -28 10 -89 l0 -95 -32
-22 c-143 -98 -306 -268 -358 -373 -23 -45 -30 -73 -30 -118 l0 -58 -117 -2
-118 -2 113 -3 c111 -4 113 -4 140 -34 16 -18 53 -39 92 -53 l65 -24 -119 -56
c-65 -31 -121 -56 -124 -56 -2 0 1 7 8 15 7 9 8 15 2 15 -9 0 -42 -43 -42 -55
0 -7 35 -6 54 1 9 3 14 9 11 14 -2 4 49 32 115 63 l119 55 88 -15 c59 -10 131
-14 219 -11 115 3 136 6 178 28 44 23 66 49 80 93 5 16 23 17 226 17 191 -1
220 -3 209 -16 -8 -10 -8 -14 0 -14 6 0 11 -9 11 -20 0 -10 8 -24 18 -29 15
-10 15 -11 -5 -17 -13 -3 -20 -10 -17 -15 3 -5 14 -5 25 1 14 8 19 21 18 48
-1 33 -2 34 -9 12 l-7 -25 -11 25 c-8 20 -7 28 6 37 17 14 17 15 -17 33 -15 8
-21 8 -17 1 5 -8 -55 -11 -211 -11 l-218 0 0 331 0 331 -24 19 c-50 41 -128
18 -283 -85 l-28 -18 1 103 c1 57 3 96 6 87 2 -10 8 -18 13 -18 10 0 -8 57
-20 65 -4 3 -13 -9 -19 -27z m317 -114 c48 -34 20 -116 -91 -264 -50 -66 -142
-165 -179 -192 l-28 -19 0 183 0 183 78 47 c122 75 179 91 220 62z m28 -136
c-3 -13 -5 -137 -5 -276 -1 -166 -4 -251 -11 -247 -5 3 -10 1 -10 -4 0 -7 -51
-11 -150 -11 l-150 0 0 88 0 88 59 51 c66 59 165 177 225 271 22 34 41 62 43
62 1 0 1 -10 -1 -22z m-336 -168 l0 -180 -47 -35 c-27 -19 -93 -57 -148 -85
-142 -73 -215 -71 -215 4 0 92 144 277 325 420 39 30 73 55 78 56 4 0 7 -81 7
-180z m0 -285 l0 -85 -162 1 c-147 0 -159 2 -123 13 22 7 60 23 85 35 25 13
59 26 75 30 17 4 29 10 27 15 -3 6 81 72 96 75 1 1 2 -37 2 -84z m-380 -81 c0
-2 -7 -4 -15 -4 -8 0 -15 4 -15 10 0 5 7 7 15 4 8 -4 15 -8 15 -10z m255 -64
l-99 -47 -57 17 c-68 21 -119 50 -119 67 0 11 40 13 188 12 l187 -1 -100 -48z
m455 32 c0 -86 -182 -131 -415 -102 -58 7 -105 16 -105 19 0 3 46 27 102 53
l101 46 159 1 c149 2 158 1 158 -17z"/>
<path d="M1350 3370 c36 -11 52 -11 45 0 -3 6 -21 10 -38 9 -31 -1 -31 -1 -7
-9z"/>
<path d="M1455 3350 c11 -5 27 -9 35 -9 13 -1 13 0 0 9 -8 5 -24 9 -35 9 l-20
0 20 -9z"/>
<path d="M1554 3315 c11 -8 25 -15 30 -15 6 0 2 7 -8 15 -11 8 -25 15 -30 15
-6 0 -2 -7 8 -15z"/>
<path d="M1233 3373 c9 -2 25 -2 35 0 9 3 1 5 -18 5 -19 0 -27 -2 -17 -5z"/>
<path d="M5170 4058 l-13 -43 -10 33 c-5 17 -13 32 -18 32 -4 0 -14 -21 -23
-47 -19 -55 -19 -53 -7 -53 5 0 13 17 19 38 8 31 10 34 16 17 23 -61 22 -61
44 3 11 34 17 62 13 62 -4 0 -14 -19 -21 -42z"/>
<path d="M5350 4031 c0 -23 5 -41 10 -41 6 0 10 11 10 24 0 14 5 28 10 31 10
6 14 -6 11 -37 -1 -10 3 -18 8 -18 6 0 11 14 11 30 0 17 5 30 11 30 7 0 9 -11
6 -30 -4 -17 -2 -30 3 -30 6 0 10 16 10 35 0 32 -2 35 -29 35 -16 0 -36 3 -45
6 -13 5 -16 -2 -16 -35z"/>
<path d="M5542 3998 c0 -40 3 -58 5 -40 3 19 10 32 19 32 8 0 19 11 26 25 13
29 -3 55 -33 55 -17 0 -19 -8 -17 -72z m33 32 c0 -13 -6 -25 -12 -27 -9 -3
-13 6 -13 27 0 21 4 30 13 28 6 -3 12 -15 12 -28z"/>
<path d="M4370 4052 c0 -5 18 -22 40 -37 39 -27 50 -48 30 -60 -5 -3 -10 -12
-10 -18 1 -7 9 -2 19 10 l19 23 26 -21 c26 -20 26 -22 10 -40 -20 -22 -8 -26
15 -5 14 13 19 12 40 -5 18 -15 21 -23 13 -31 -21 -21 -13 -32 8 -13 20 18 21
18 45 -5 23 -22 24 -25 8 -42 -19 -21 -7 -24 16 -4 14 13 19 12 41 -4 20 -15
23 -21 13 -31 -21 -21 -15 -34 6 -15 19 17 21 17 45 -1 28 -20 31 -29 16 -38
-5 -3 -10 -11 -10 -17 0 -6 9 -3 19 6 28 26 36 5 32 -89 -3 -76 -17 -180 -20
-142 0 9 -5 17 -11 17 -13 0 -13 -3 7 -45 20 -41 29 -44 37 -11 3 13 9 32 13
42 4 12 3 15 -5 10 -13 -8 -15 125 -3 176 6 27 6 27 30 9 21 -16 22 -21 11
-42 -12 -23 -11 -23 6 -7 16 16 19 16 45 1 26 -15 26 -18 12 -40 -18 -27 -7
-32 13 -6 18 26 29 8 14 -26 -6 -16 -15 -45 -20 -65 l-8 -36 37 1 c23 1 28 3
14 6 -18 3 -23 11 -23 33 0 31 19 80 30 80 16 0 29 -26 20 -40 -16 -26 -11
-36 6 -12 15 22 17 22 35 6 13 -12 16 -21 9 -28 -18 -18 -11 -30 8 -13 17 16
20 15 53 -13 19 -16 44 -29 56 -30 16 0 21 -4 17 -15 -4 -8 -1 -15 5 -15 6 0
11 7 11 15 0 8 7 15 15 15 9 0 12 -6 9 -15 -4 -8 -1 -15 5 -15 6 0 11 7 11 15
0 25 38 18 43 -7 l4 -23 2 23 c1 15 7 22 21 22 13 0 18 -5 14 -15 -4 -8 -1
-15 5 -15 6 0 11 7 11 15 0 8 7 15 15 15 8 0 15 -7 15 -15 0 -8 5 -15 10 -15
6 0 10 7 10 15 0 21 28 19 33 -2 4 -17 5 -17 6 0 2 27 49 23 54 -5 l4 -23 2
23 c1 27 37 31 44 5 4 -14 5 -13 6 4 1 26 27 22 34 -5 4 -15 5 -15 6 1 2 26
31 21 32 -5 l0 -23 9 23 c11 26 37 29 43 5 4 -17 5 -17 6 0 1 15 12 17 76 17
43 0 75 4 75 10 0 6 -119 10 -336 10 l-336 0 -134 102 -135 101 24 26 c56 62
55 60 9 100 l-42 36 69 75 c54 58 68 69 64 50 -4 -20 -2 -22 6 -10 6 8 11 25
11 37 0 20 -2 21 -32 11 -18 -6 -27 -13 -20 -16 8 -2 -12 -31 -49 -73 l-61
-69 -53 45 c-29 25 -57 45 -61 45 -4 0 -15 -7 -25 -16 -17 -15 -22 -14 -68 25
-28 23 -48 48 -45 55 3 8 -9 17 -31 23 -38 12 -41 8 -23 -32 13 -28 26 -33 24
-9 0 9 5 18 12 20 9 2 9 1 0 -3 -7 -4 10 -26 47 -58 52 -46 57 -55 46 -69 -7
-9 -18 -16 -23 -16 -5 0 -74 50 -154 111 -79 60 -144 106 -144 101z m480 -232
c0 -4 -6 -12 -13 -18 -10 -9 -25 -1 -62 32 -44 38 -48 45 -36 60 12 14 18 12
62 -25 27 -22 49 -44 49 -49z m-77 -3 c39 -34 48 -47 45 -69 l-3 -27 -68 51
c-65 48 -67 51 -51 69 9 11 20 19 23 19 3 0 28 -19 54 -43z m133 -33 c19 -15
34 -31 34 -38 0 -6 -14 -26 -31 -45 l-31 -33 -24 23 c-28 27 -32 74 -7 101 20
23 18 23 59 -8z"/>
<path d="M5463 4043 c9 -2 23 -2 30 0 6 3 -1 5 -18 5 -16 0 -22 -2 -12 -5z"/>
<path d="M5460 4021 c0 -5 9 -7 20 -4 11 3 20 7 20 9 0 2 -9 4 -20 4 -11 0
-20 -4 -20 -9z"/>
<path d="M3810 3983 c0 -4 18 -26 40 -48 l40 -41 -35 -34 c-19 -19 -35 -38
-35 -42 0 -5 26 -8 57 -6 49 3 58 6 60 23 2 11 0 14 -3 8 -3 -8 -24 -13 -47
-13 l-41 0 32 33 32 33 -35 34 c-19 19 -35 36 -35 39 0 4 18 7 40 9 22 1 40
-2 40 -8 0 -5 4 -10 10 -10 5 0 7 7 4 15 -5 11 -22 15 -65 15 -32 0 -59 -3
-59 -7z"/>
<path d="M4003 3983 c-18 -2 -33 -9 -33 -15 0 -7 13 -8 34 -5 22 3 37 1 40 -6
3 -9 7 -8 15 3 9 13 -4 33 -19 28 -3 -1 -20 -3 -37 -5z"/>
<path d="M3595 3970 c-4 -6 8 -10 29 -10 20 0 36 5 36 10 0 6 -13 10 -29 10
-17 0 -33 -4 -36 -10z"/>
<path d="M2756 3948 c-18 -58 -13 -118 9 -118 22 0 28 33 9 47 -16 12 -16 14
1 32 9 11 15 27 12 36 -8 18 -26 20 -31 3z m24 -12 c0 -3 -4 -8 -10 -11 -5 -3
-10 -1 -10 4 0 6 5 11 10 11 6 0 10 -2 10 -4z m-13 -88 c-3 -8 -6 -5 -6 6 -1
11 2 17 5 13 3 -3 4 -12 1 -19z"/>
<path d="M3613 3933 c-8 -3 -13 -25 -13 -59 l0 -54 38 2 c36 1 36 1 5 5 -27 4
-33 9 -33 28 0 18 6 25 28 28 l27 4 -27 2 c-36 1 -39 31 -3 31 14 0 25 5 25
10 0 10 -26 12 -47 3z"/>
<path d="M3970 3875 l0 -65 30 0 c17 0 30 5 30 10 0 6 -11 10 -25 10 -20 0
-25 5 -25 24 0 19 6 26 28 29 l27 4 -27 2 c-36 1 -39 31 -3 31 14 0 25 5 25
10 0 6 -13 10 -30 10 l-30 0 0 -65z"/>
<path d="M2252 3908 c-32 -41 -14 -91 26 -69 13 7 22 7 30 -1 7 -7 15 -9 18
-5 4 3 -1 13 -10 22 -9 9 -16 27 -16 41 0 26 -30 34 -48 12z m36 -34 c-5 -26
-38 -31 -38 -7 0 24 21 46 33 34 5 -5 7 -17 5 -27z"/>
<path d="M2046 3901 c-3 -5 1 -14 9 -21 23 -19 19 -43 -6 -35 -15 5 -19 4 -15
-4 10 -16 46 -13 53 4 3 9 -2 24 -11 34 -14 15 -14 20 -4 24 9 4 7 6 -4 6 -9
1 -19 -3 -22 -8z"/>
<path d="M2537 3903 c-13 -12 -7 -24 19 -33 30 -12 22 -34 -9 -24 -17 5 -19 3
-11 -6 16 -17 48 -9 52 13 3 12 -4 20 -17 24 -12 3 -21 10 -21 15 0 5 10 6 21
3 15 -5 19 -4 15 4 -8 12 -39 15 -49 4z"/>
<path d="M2650 3874 c0 -19 5 -34 11 -34 6 0 9 9 6 20 -3 10 1 24 9 31 15 12
19 6 28 -41 2 -14 3 -7 3 15 -2 36 -5 40 -29 41 -25 1 -28 -2 -28 -32z"/>
<path d="M2151 3863 c1 -36 2 -37 8 -8 7 35 23 36 33 3 6 -19 7 -18 5 7 -2 23
-7 31 -24 33 -21 3 -23 -1 -22 -35z"/>
<path d="M2100 3866 c0 -14 5 -28 10 -31 6 -4 10 7 10 24 0 17 -4 31 -10 31
-5 0 -10 -11 -10 -24z"/>
<path d="M2610 3873 c0 -10 5 -25 10 -33 7 -11 10 -7 10 18 0 17 -4 32 -10 32
-5 0 -10 -8 -10 -17z"/>
<path d="M3730 3875 c0 -10 9 -15 28 -14 27 2 27 2 2 7 l-25 5 25 8 25 7 -27
1 c-19 1 -28 -4 -28 -14z"/>
<path d="M500 3859 c0 -5 5 -7 11 -3 9 5 10 -1 5 -20 -7 -28 6 -34 34 -16 13
8 12 10 -2 10 -10 0 -17 3 -17 8 3 20 -2 32 -16 32 -8 0 -15 -5 -15 -11z"/>
<path d="M607 3852 c-24 -26 -21 -49 8 -68 29 -19 55 -12 55 14 0 23 -19 42
-43 42 -16 0 -17 3 -7 15 18 21 6 19 -13 -3z m43 -37 c20 -24 -1 -38 -29 -19
-18 13 -20 18 -10 25 19 12 25 11 39 -6z"/>
<path d="M2410 3820 c0 -6 11 -10 25 -10 14 0 25 4 25 8 0 4 -11 9 -25 10 -14
1 -25 -3 -25 -8z"/>
<path d="M4050 3823 c0 -5 5 -15 10 -23 8 -12 10 -11 10 8 0 12 -4 22 -10 22
-5 0 -10 -3 -10 -7z"/>
<path d="M2010 3810 c0 -6 63 -10 170 -10 107 0 170 4 170 10 0 6 -63 10 -170
10 -107 0 -170 -4 -170 -10z"/>
<path d="M2516 3808 c-6 -4 63 -7 154 -6 166 2 152 5 -39 10 -56 2 -108 0
-115 -4z"/>
<path d="M5203 3803 c-7 -2 -15 -21 -18 -41 -3 -20 -8 -49 -10 -64 -3 -16 0
-28 5 -28 6 0 10 14 10 30 0 25 4 30 24 30 14 0 28 5 31 10 4 6 -5 10 -19 10
-19 0 -26 5 -26 20 0 15 7 20 29 20 17 0 33 5 36 10 6 10 -39 13 -62 3z"/>
<path d="M436 3791 c-3 -5 1 -29 10 -55 17 -49 31 -63 20 -21 -8 30 6 32 39 7
l22 -18 -43 -18 c-24 -10 -44 -22 -44 -26 0 -4 55 17 123 47 67 30 137 61 156
69 19 8 31 17 28 20 -3 3 -51 -15 -107 -40 -108 -49 -121 -53 -102 -34 20 20
13 32 -7 14 -18 -17 -20 -16 -37 23 -17 39 -45 54 -58 32z m34 -15 c0 -8 -4
-18 -10 -21 -5 -3 -10 3 -10 14 0 12 5 21 10 21 6 0 10 -6 10 -14z"/>
<path d="M2423 3793 c9 -2 23 -2 30 0 6 3 -1 5 -18 5 -16 0 -22 -2 -12 -5z"/>
<path d="M2246 3743 c-19 -55 -19 -53 -6 -53 6 0 10 7 10 15 0 21 37 19 50 -2
9 -14 9 -11 4 17 -8 41 -21 70 -33 70 -5 0 -16 -21 -25 -47z m44 -5 c0 -5 -7
-8 -15 -8 -15 0 -20 21 -8 33 7 7 23 -11 23 -25z"/>
<path d="M2717 3783 c-4 -3 -7 -28 -7 -55 0 -47 1 -49 23 -43 32 10 41 21 32
42 -5 10 -7 24 -6 32 4 21 -28 39 -42 24z m28 -23 c-3 -5 -10 -10 -16 -10 -5
0 -9 5 -9 10 0 6 7 10 16 10 8 0 12 -4 9 -10z m9 -51 c-8 -14 -34 -11 -34 4 0
8 3 17 7 20 9 9 34 -13 27 -24z"/>
<path d="M2047 3763 c-13 -13 -7 -32 13 -38 11 -3 20 -13 20 -21 0 -11 -6 -13
-21 -9 -15 5 -19 4 -15 -4 9 -15 43 -14 52 1 4 6 -5 22 -22 36 -26 23 -27 25
-6 20 25 -7 30 7 6 16 -19 7 -19 7 -27 -1z"/>
<path d="M2157 3723 c7 -46 13 -55 13 -22 0 13 4 31 9 38 8 12 11 8 16 -15 11
-46 13 -51 14 -22 1 41 -9 58 -34 58 -22 0 -23 -3 -18 -37z"/>
<path d="M2524 3748 c-4 -6 0 -16 9 -23 21 -15 22 -29 2 -21 -8 3 -15 1 -15
-4 0 -14 37 -12 46 1 4 7 -4 20 -17 31 -16 14 -18 18 -6 14 9 -3 17 -1 17 4 0
14 -27 12 -36 -2z"/>
<path d="M2625 3750 c-2 -4 0 -20 5 -36 l8 -29 1 27 c1 37 19 45 27 11 10 -46
12 -50 13 -18 0 17 -3 35 -7 41 -8 12 -40 15 -47 4z"/>
<path d="M2120 3718 c0 -21 5 -38 10 -38 13 0 13 40 0 60 -7 11 -10 5 -10 -22z"/>
<path d="M2590 3722 c0 -18 4 -32 8 -32 10 0 9 46 -1 56 -4 4 -7 -7 -7 -24z"/>
<path d="M5402 3713 c3 -34 6 -38 31 -39 25 -1 27 2 26 40 l0 41 -12 -35 c-14
-40 -34 -38 -29 3 2 15 -2 27 -8 27 -7 0 -10 -15 -8 -37z"/>
<path d="M5490 3709 c0 -46 15 -52 24 -9 7 40 26 38 27 -2 l1 -33 9 33 c11 37
34 33 26 -4 -2 -13 0 -24 4 -24 12 0 11 57 0 65 -6 3 -28 7 -50 9 l-41 3 0
-38z"/>
<path d="M5610 3721 c-14 -35 -5 -55 21 -48 16 4 18 1 13 -21 -10 -41 -14 -44
-46 -38 -18 3 -27 2 -23 -4 3 -6 20 -10 36 -10 36 0 49 27 49 101 0 41 -3 49
-19 49 -11 0 -23 -12 -31 -29z m35 -3 c-9 -29 -21 -42 -28 -31 -7 12 11 53 23
53 7 0 9 -9 5 -22z"/>
<path d="M5358 3733 c6 -2 18 -2 25 0 6 3 1 5 -13 5 -14 0 -19 -2 -12 -5z"/>
<path d="M675 3710 c-4 -6 -11 -7 -17 -4 -8 5 -9 1 -5 -10 4 -10 10 -29 13
-42 10 -40 22 -27 17 18 -4 29 -3 39 5 34 7 -4 12 -2 12 3 0 14 -17 14 -25 1z"/>
<path d="M5230 3710 c0 -5 4 -10 9 -10 5 0 12 -10 14 -22 l4 -23 2 23 c0 12 8
22 16 22 8 0 15 5 15 10 0 6 -13 10 -30 10 -16 0 -30 -4 -30 -10z"/>
<path d="M5301 3707 c-6 -6 -11 -29 -10 -51 0 -33 2 -37 9 -20 4 12 15 24 24
27 20 8 21 43 2 50 -7 3 -19 0 -25 -6z m29 -16 c0 -6 -4 -13 -10 -16 -5 -3
-10 1 -10 9 0 9 5 16 10 16 6 0 10 -4 10 -9z"/>
<path d="M5350 3710 c0 -5 7 -10 15 -10 8 0 15 5 15 10 0 6 -7 10 -15 10 -8 0
-15 -4 -15 -10z"/>
<path d="M501 3656 c-9 -10 -8 -16 4 -26 12 -10 13 -16 4 -26 -9 -11 -8 -18 1
-29 17 -20 53 -19 73 3 26 29 20 38 -7 12 -26 -24 -56 -22 -56 4 0 8 8 20 18
25 15 9 15 10 -5 11 -13 0 -23 5 -23 10 0 6 10 15 23 20 22 9 22 9 1 9 -12 1
-27 -5 -33 -13z"/>
<path d="M357 3634 c-16 -9 -27 -18 -24 -21 6 -5 67 24 67 32 0 8 -14 5 -43
-11z"/>
<path d="M612 3613 c4 -21 33 -25 33 -3 0 8 -8 16 -18 18 -14 3 -18 -1 -15
-15z"/>
<path d="M264 3606 c-4 -10 -2 -33 4 -52 8 -28 8 -36 -4 -41 -24 -9 -42 4 -49
36 -4 17 -10 31 -15 31 -5 0 -4 -15 1 -32 5 -18 9 -34 9 -35 0 -11 43 -22 57
-14 14 7 21 2 35 -27 11 -23 16 -27 12 -12 -4 14 -8 49 -10 79 -3 59 -27 100
-40 67z m25 -44 c0 -24 -1 -25 -9 -7 -12 28 -12 47 0 40 6 -3 10 -18 9 -33z"/>
<path d="M370 3605 c-16 -9 -19 -14 -9 -15 8 0 24 7 35 15 24 18 7 19 -26 0z"/>
<path d="M3341 3566 c-13 -54 -13 -56 -1 -56 13 0 82 62 75 68 -3 3 -19 -7
-35 -23 -32 -31 -39 -21 -20 29 5 14 6 26 1 26 -5 0 -14 -20 -20 -44z"/>
<path d="M4663 3562 c-3 -15 -13 -22 -29 -22 -19 0 -24 -5 -24 -24 0 -21 4
-24 35 -23 25 1 32 4 24 13 -6 8 -6 21 1 39 6 15 8 30 5 33 -3 4 -8 -4 -12
-16z m-23 -41 c0 -6 -4 -13 -10 -16 -5 -3 -10 1 -10 9 0 9 5 16 10 16 6 0 10
-4 10 -9z"/>
<path d="M2527 3555 c-8 -8 -21 -38 -27 -67 -7 -29 -19 -66 -26 -83 l-13 -30
-1 28 c0 15 -4 27 -10 27 -13 0 -13 -77 0 -85 13 -8 36 40 59 125 11 40 23 75
26 78 3 3 38 0 78 -7 125 -22 142 -24 136 -18 -4 5 -188 47 -204 47 -2 0 -10
-7 -18 -15z"/>
<path d="M3580 3540 c-18 -25 -20 -34 -10 -40 22 -13 2 -32 -21 -19 -11 5 -25
9 -32 6 -6 -2 15 -16 47 -30 59 -27 91 -31 41 -5 -23 13 -25 16 -11 27 9 8 16
21 16 30 0 13 -2 13 -9 2 -6 -10 -10 -10 -16 -1 -4 6 1 20 11 31 9 10 15 22
12 25 -3 3 -16 -9 -28 -26z"/>
<path d="M3436 3523 c-6 -16 9 -33 29 -33 6 1 1 8 -10 16 -20 16 -20 16 3 9
27 -8 29 1 3 14 -15 8 -20 7 -25 -6z"/>
<path d="M2300 3501 c0 -40 -9 -61 -27 -61 -12 0 -14 7 -9 30 7 36 -6 39 -22
5 -18 -39 -35 -31 -28 13 5 27 4 33 -3 22 -6 -8 -11 -28 -11 -43 0 -24 4 -28
23 -25 12 2 27 -4 34 -12 10 -13 14 -12 33 6 23 23 40 94 21 94 -6 0 -11 -13
-11 -29z"/>
<path d="M2587 3513 c-15 -14 -7 -43 13 -43 13 0 18 -5 14 -15 -4 -10 -13 -13
-26 -9 -14 4 -18 2 -14 -5 14 -23 44 -11 60 24 10 19 14 40 11 45 -7 11 -48
14 -58 3z m30 -20 c-9 -9 -19 -14 -23 -11 -10 10 6 28 24 28 15 0 15 -1 -1
-17z"/>
<path d="M2365 3470 c28 -12 47 -12 40 0 -3 6 -18 10 -33 9 -24 0 -25 -1 -7
-9z"/>
<path d="M4238 3453 c12 -2 30 -2 40 0 9 3 -1 5 -23 4 -22 0 -30 -2 -17 -4z"/>
<path d="M4328 3453 c12 -2 30 -2 40 0 9 3 -1 5 -23 4 -22 0 -30 -2 -17 -4z"/>
<path d="M4428 3453 c12 -2 30 -2 40 0 9 3 -1 5 -23 4 -22 0 -30 -2 -17 -4z"/>
<path d="M4528 3453 c12 -2 30 -2 40 0 9 3 -1 5 -23 4 -22 0 -30 -2 -17 -4z"/>
<path d="M4628 3453 c12 -2 30 -2 40 0 9 3 -1 5 -23 4 -22 0 -30 -2 -17 -4z"/>
<path d="M4723 3453 c9 -2 25 -2 35 0 9 3 1 5 -18 5 -19 0 -27 -2 -17 -5z"/>
<path d="M4853 3453 c9 -2 25 -2 35 0 9 3 1 5 -18 5 -19 0 -27 -2 -17 -5z"/>
<path d="M5053 3453 c9 -2 25 -2 35 0 9 3 1 5 -18 5 -19 0 -27 -2 -17 -5z"/>
<path d="M2365 3440 c27 -12 35 -12 35 0 0 6 -12 10 -27 9 -25 0 -26 -1 -8 -9z"/>
<path d="M3540 3441 c0 -6 6 -11 13 -11 9 0 9 -2 -1 -8 -7 -5 -10 -16 -7 -24
8 -20 -25 -34 -37 -16 -6 11 -8 11 -8 0 0 -19 30 -27 45 -11 18 19 23 71 8 76
-7 3 -13 0 -13 -6z"/>
<path d="M3655 3421 c-3 -5 -1 -12 5 -16 5 -3 10 -1 10 5 0 6 5 8 11 5 14 -9
-21 -47 -38 -41 -16 7 -17 -10 -1 -20 6 -4 23 6 40 25 29 33 39 29 13 -5 -8
-10 -14 -26 -14 -34 0 -8 10 1 22 21 12 20 28 34 35 32 28 -10 9 9 -23 23 -40
16 -52 17 -60 5z"/>
<path d="M2530 3412 c0 -5 19 -12 43 -16 23 -4 53 -10 66 -13 15 -4 22 -2 18
4 -4 6 -24 13 -44 17 -21 3 -48 9 -60 12 -13 4 -23 2 -23 -4z"/>
<path d="M4893 3413 c-41 -5 -44 -23 -4 -23 16 0 31 -5 33 -10 2 -7 11 -5 23
4 17 14 18 17 5 26 -8 5 -17 9 -20 8 -3 -1 -20 -3 -37 -5z"/>
<path d="M3769 3388 c0 -2 -2 -11 -4 -22 -2 -10 -8 -23 -14 -29 -6 -6 -11 -16
-11 -21 0 -6 7 -2 15 8 16 21 15 22 31 -31 2 -7 11 -12 21 -12 17 1 17 2 1 6
-10 2 -18 13 -18 23 0 11 8 23 18 29 13 8 15 14 6 28 -10 15 -42 31 -45 21z
m41 -28 c0 -5 -2 -10 -4 -10 -2 0 -12 -3 -20 -6 -12 -5 -15 -2 -10 10 7 17 34
22 34 6z"/>
<path d="M790 3370 c-9 -6 -11 -10 -3 -10 7 0 10 -7 7 -15 -4 -10 0 -15 11
-15 9 0 15 -6 12 -12 -2 -7 -14 -12 -26 -11 -13 2 -20 -1 -16 -7 9 -14 41 -12
54 4 8 10 7 21 -5 45 -8 17 -16 31 -17 31 -1 0 -9 -5 -17 -10z"/>
<path d="M2570 3356 c-11 -30 -13 -60 -4 -69 8 -8 34 3 34 14 0 4 -7 6 -15 3
-18 -7 -19 4 -5 42 6 15 8 29 6 32 -3 3 -10 -7 -16 -22z"/>
<path d="M3865 3359 c3 -15 0 -19 -10 -15 -16 6 -21 -9 -7 -18 12 -7 29 7 36
32 5 16 3 22 -8 22 -10 0 -13 -7 -11 -21z"/>
<path d="M4784 3354 c3 -9 6 -28 7 -42 l1 -27 10 28 c5 15 14 27 19 27 5 0 9
-12 10 -27 1 -27 1 -26 11 6 10 36 23 32 31 -9 3 -17 5 -13 4 10 -2 34 -4 35
-39 35 -21 -1 -38 3 -38 7 0 4 -5 8 -11 8 -6 0 -8 -7 -5 -16z"/>
<path d="M1703 3353 c14 -4 16 -8 6 -19 -9 -11 -8 -14 5 -14 9 0 16 -5 16 -11
0 -7 -10 -9 -26 -5 -17 5 -23 3 -19 -4 8 -13 42 -13 50 0 3 5 3 21 -1 35 -4
17 -12 25 -28 24 -17 -1 -18 -2 -3 -6z"/>
<path d="M4904 3346 c-9 -23 0 -51 16 -51 10 0 17 -14 21 -40 5 -32 6 -25 7
33 2 66 0 72 -18 72 -11 0 -23 -6 -26 -14z m17 -39 c-8 -8 -11 -5 -11 9 0 27
14 41 18 19 2 -9 -1 -22 -7 -28z"/>
<path d="M743 3333 c9 -2 23 -2 30 0 6 3 -1 5 -18 5 -16 0 -22 -2 -12 -5z"/>
<path d="M2880 3309 c-148 -38 -275 -115 -386 -230 -146 -154 -214 -311 -214
-494 1 -449 340 -815 780 -842 211 -13 410 62 573 216 235 222 311 517 210
821 -86 261 -310 464 -583 530 -113 27 -276 27 -380 -1z m430 -28 c137 -46
231 -102 326 -196 89 -88 152 -186 189 -292 30 -88 42 -148 26 -139 -15 10
-13 -5 4 -28 8 -11 15 -40 15 -65 -1 -125 -102 -215 -314 -280 -37 -12 -73
-21 -80 -21 -8 0 -11 46 -11 158 0 177 -16 266 -65 370 -16 34 -26 62 -22 62
4 0 2 4 -3 8 -6 4 -23 27 -40 50 -38 57 -143 153 -199 183 l-45 24 -53 -27
c-110 -54 -200 -159 -280 -325 -59 -122 -96 -262 -104 -393 l-7 -98 -66 23
c-239 81 -317 189 -282 391 42 240 250 486 489 579 112 43 185 55 312 51 97
-3 132 -9 210 -35z m-220 -448 c0 -142 -3 -268 -6 -280 -4 -16 -65 -59 -207
-145 -111 -68 -205 -125 -210 -127 -10 -4 -2 104 14 204 14 85 55 207 101 298
35 70 41 77 68 77 16 0 32 5 36 11 4 8 -3 9 -27 4 l-33 -8 28 39 c68 92 180
184 224 184 9 0 12 -58 12 -257z m73 224 c49 -31 177 -160 177 -178 0 -4 -8
-9 -17 -12 -14 -3 -11 -6 9 -11 78 -22 154 -375 120 -558 l-7 -38 -172 136
-173 135 0 279 c0 154 2 280 5 280 3 0 29 -15 58 -33z m-39 -561 l29 -24 -23
-12 c-22 -12 -58 -10 -95 5 -18 8 -18 7 -6 -8 16 -20 77 -23 114 -6 22 10 36
2 156 -92 113 -88 129 -104 112 -110 -41 -16 -319 -31 -436 -25 -122 7 -295
33 -295 45 1 6 400 250 410 250 3 0 18 -10 34 -23z m-742 -118 c72 -55 214
-111 370 -145 118 -26 532 -25 662 0 233 47 377 116 439 212 l19 30 -6 -57
c-15 -142 -108 -318 -231 -438 -155 -153 -330 -224 -540 -223 -359 2 -666 241
-769 597 -33 111 -33 131 -2 85 13 -19 39 -47 58 -61z"/>
<path d="M3090 3180 c0 -43 3 -51 17 -48 10 2 24 15 33 30 18 33 6 61 -29 66
-19 3 -21 -1 -21 -48z m39 -11 c-14 -28 -19 -23 -19 19 1 34 2 36 15 18 10
-13 11 -24 4 -37z"/>
<path d="M2700 2850 c-12 -8 -12 -10 5 -9 11 0 29 4 40 9 18 8 18 9 -5 9 -14
0 -32 -4 -40 -9z"/>
<path d="M3410 2850 c0 -9 69 -24 76 -17 3 2 -13 9 -36 15 -22 5 -40 6 -40 2z"/>
<path d="M2600 2824 l-35 -14 34 5 c18 3 37 5 42 5 5 0 9 5 9 10 0 13 -7 12
-50 -6z"/>
<path d="M3515 2821 c6 -5 24 -13 40 -17 20 -4 27 -3 20 3 -5 6 -23 14 -40 17
-20 5 -27 4 -20 -3z"/>
<path d="M2494 2786 c-29 -22 -13 -26 21 -5 17 11 23 19 14 19 -8 0 -24 -6
-35 -14z"/>
<path d="M3620 2785 c14 -8 32 -14 40 -14 9 0 4 6 -10 14 -14 8 -32 14 -40 14
-9 0 -4 -6 10 -14z"/>
<path d="M3690 2762 c0 -10 50 -35 57 -28 3 2 -9 12 -26 21 -17 8 -31 12 -31
7z"/>
<path d="M2405 2725 c-16 -13 -25 -24 -20 -25 6 0 24 11 40 25 17 13 26 24 20
25 -5 0 -23 -11 -40 -25z"/>
<path d="M3790 2695 c13 -14 28 -25 33 -25 6 0 0 11 -13 25 -13 14 -28 25 -33
25 -6 0 0 -11 13 -25z"/>
<path d="M2321 2654 c-12 -15 -21 -31 -21 -37 0 -6 11 4 25 23 14 19 25 35 25
37 0 9 -11 0 -29 -23z"/>
<path d="M2920 2880 c0 -5 11 -10 24 -10 14 0 28 5 31 10 4 6 -7 10 -24 10
-17 0 -31 -4 -31 -10z"/>
<path d="M3010 2880 c0 -5 11 -10 24 -10 14 0 28 5 31 10 4 6 -7 10 -24 10
-17 0 -31 -4 -31 -10z"/>
<path d="M3111 2886 c12 -10 59 -15 59 -6 0 5 -14 10 -32 10 -17 0 -29 -2 -27
-4z"/>
<path d="M3190 2878 c0 -5 13 -8 29 -8 16 0 36 -3 45 -6 9 -3 16 -2 16 4 0 5
-20 12 -45 14 -25 2 -45 0 -45 -4z"/>
<path d="M3267 2563 c-4 -3 -6 -29 -6 -57 1 -28 3 -43 6 -33 5 18 6 18 24 1
10 -9 19 -12 19 -7 0 6 -7 16 -15 23 -11 9 -12 16 -3 30 18 28 -4 65 -25 43z
m23 -22 c0 -6 -4 -13 -10 -16 -5 -3 -10 1 -10 9 0 9 5 16 10 16 6 0 10 -4 10
-9z"/>
<path d="M3066 2411 c-3 -5 -14 -7 -25 -4 -11 3 -21 -2 -25 -13 -10 -25 9 -40
29 -24 13 11 18 11 24 1 5 -7 8 1 8 19 0 32 -2 36 -11 21z"/>
<path d="M2651 2217 c-6 -16 -11 -38 -11 -50 0 -18 2 -19 10 -7 9 13 13 12 26
-5 15 -19 16 -18 9 20 -11 63 -21 76 -34 42z m16 -29 c-3 -8 -6 -5 -6 6 -1 11
2 17 5 13 3 -3 4 -12 1 -19z"/>
<path d="M3467 2223 c-4 -3 -7 -26 -7 -50 0 -31 4 -43 15 -43 25 0 34 32 19
68 -15 34 -17 36 -27 25z m23 -58 c0 -8 -4 -15 -10 -15 -5 0 -10 7 -10 15 0 8
5 15 10 15 6 0 10 -7 10 -15z"/>
<path d="M3014 2156 c-11 -30 1 -61 25 -64 13 -2 28 1 34 7 7 7 1 10 -19 8
-25 -2 -29 2 -29 23 0 18 5 25 18 24 9 -1 17 2 17 7 0 15 -40 10 -46 -5z"/>
<path d="M5230 3144 c0 -42 4 -73 9 -70 5 3 7 15 4 25 -3 14 3 23 24 33 49 23
40 88 -13 88 -23 0 -24 -3 -24 -76z m44 50 c19 -19 20 -26 4 -42 -23 -23 -38
-13 -38 23 0 38 10 44 34 19z"/>
<path d="M4050 3141 c0 -27 -3 -56 -6 -65 -3 -9 -1 -16 5 -16 6 0 11 13 11 29
0 23 5 31 23 34 l22 4 -23 2 c-18 1 -23 6 -20 24 2 17 9 21 31 19 15 -1 27 2
27 8 0 5 -16 10 -35 10 l-35 0 0 -49z"/>
<path d="M4494 3178 c-5 -7 -9 -40 -9 -73 0 -58 1 -60 27 -63 15 -2 37 2 48 8
28 15 24 61 -7 75 -12 5 -23 20 -25 34 -3 28 -21 38 -34 19z m26 -22 c0 -8 -4
-18 -10 -21 -5 -3 -10 3 -10 14 0 12 5 21 10 21 6 0 10 -6 10 -14z m44 -59 c9
-15 7 -21 -8 -33 -33 -24 -56 -18 -56 14 0 16 3 32 7 36 12 12 45 2 57 -17z"/>
<path d="M4420 3123 l-25 -47 -8 43 c-5 24 -11 41 -14 38 -9 -9 9 -98 20 -94
13 4 72 107 60 107 -4 0 -19 -21 -33 -47z"/>
<path d="M4920 3149 c0 -14 -5 -19 -14 -16 -21 8 -56 -21 -56 -49 0 -27 26
-33 49 -11 11 10 14 10 18 0 3 -7 11 -13 20 -13 12 0 12 2 -1 16 -12 11 -14
26 -10 55 4 21 4 39 0 39 -3 0 -6 -9 -6 -21z m-16 -38 c7 -10 -32 -47 -40 -38
-7 7 14 47 26 47 5 0 11 -4 14 -9z"/>
<path d="M5330 3150 c-12 -8 -11 -10 8 -10 12 0 22 5 22 10 0 13 -11 13 -30 0z"/>
<path d="M5410 3131 c0 -11 -3 -26 -6 -35 -3 -9 -1 -16 5 -16 6 0 11 9 11 19
0 11 5 23 10 26 6 4 10 -5 10 -19 0 -32 17 -34 22 -3 2 12 8 20 13 17 6 -3 9
-13 8 -22 -2 -10 2 -18 8 -18 6 0 9 12 7 28 -2 21 -8 27 -29 28 -15 1 -34 4
-43 7 -11 5 -16 1 -16 -12z"/>
<path d="M4295 3123 c-26 -25 -11 -71 19 -60 14 6 16 2 10 -28 -4 -23 -2 -35
5 -35 6 0 11 15 11 34 0 18 3 47 6 63 5 25 2 31 -15 36 -12 3 -28 -1 -36 -10z
m33 -28 c-6 -14 -15 -25 -20 -25 -4 0 -8 11 -8 25 0 18 5 25 20 25 17 0 18 -3
8 -25z"/>
<path d="M4617 3133 c-9 -9 12 -33 29 -33 8 0 14 -7 14 -16 0 -13 -6 -15 -27
-9 -23 5 -25 4 -14 -9 17 -20 26 -20 45 -1 17 17 11 45 -9 45 -8 0 -17 5 -21
12 -5 8 -2 9 9 5 10 -3 17 -2 17 3 0 11 -33 14 -43 3z"/>
<path d="M4743 3133 c-7 -2 -13 -20 -13 -39 0 -21 4 -33 10 -29 6 3 10 17 10
30 0 13 5 27 10 30 6 3 10 -5 10 -19 0 -14 5 -28 11 -31 7 -5 9 5 7 26 -3 33
-18 44 -45 32z"/>
<path d="M5515 3120 c-8 -26 11 -51 32 -43 13 5 14 0 8 -28 -10 -47 -21 -56
-46 -40 -18 10 -20 10 -17 -1 7 -21 50 -22 65 -2 7 10 13 44 13 76 0 55 -1 58
-24 58 -16 0 -27 -7 -31 -20z m35 -10 c0 -11 -4 -20 -10 -20 -5 0 -10 9 -10
20 0 11 5 20 10 20 6 0 10 -9 10 -20z"/>
<path d="M4193 3123 c9 -2 25 -2 35 0 9 3 1 5 -18 5 -19 0 -27 -2 -17 -5z"/>
<path d="M4690 3095 c0 -46 15 -46 16 0 0 19 -3 35 -8 35 -4 0 -8 -16 -8 -35z"/>
<path d="M5333 3123 c9 -2 23 -2 30 0 6 3 -1 5 -18 5 -16 0 -22 -2 -12 -5z"/>
<path d="M4101 3077 c0 -32 0 -32 11 -7 l11 25 7 -25 c5 -16 8 -19 9 -7 1 9 1
20 2 24 0 4 -9 10 -20 15 -19 6 -21 4 -20 -25z"/>
<path d="M4190 3102 c0 -4 9 -8 20 -9 11 -1 20 2 20 8 0 5 -9 9 -20 9 -11 0
-20 -4 -20 -8z"/>
<path d="M1617 3009 c-28 -50 -24 -64 8 -29 23 25 28 20 16 -14 -8 -19 -7 -26
2 -26 7 0 13 15 14 35 2 26 -1 35 -12 35 -13 0 -14 4 -5 21 7 11 10 22 8 24
-2 2 -15 -19 -31 -46z"/>
<path d="M881 3040 c0 -8 3 -22 8 -29 6 -9 5 -23 -1 -35 -10 -19 -10 -20 5 -7
14 11 20 11 32 1 10 -9 15 -9 15 -1 0 6 -5 11 -11 11 -7 0 -9 13 -5 38 6 34 5
35 -7 14 l-13 -23 -12 23 c-6 14 -11 17 -11 8z"/>
<path d="M1690 2940 c-6 -12 -9 -24 -7 -27 3 -2 11 5 17 17 6 12 9 24 7 27 -3
2 -11 -5 -17 -17z"/>
<path d="M1999 2921 c-7 -20 -19 -46 -27 -58 -9 -15 -10 -23 -3 -23 6 0 11 4
11 10 0 5 15 16 34 24 51 21 60 67 17 79 -16 4 -23 -3 -32 -32z m41 -1 c0 -11
-7 -23 -15 -27 -21 -8 -24 -2 -14 25 10 28 29 29 29 2z"/>
<path d="M1556 2932 c13 -12 185 -65 190 -59 3 3 -37 19 -88 36 -96 32 -119
37 -102 23z"/>
<path d="M1566 2851 c-29 -56 -25 -63 12 -28 26 22 26 21 6 -28 -4 -9 -1 -15
7 -15 9 0 15 13 16 35 2 26 -1 35 -12 35 -13 0 -14 4 -5 21 7 11 9 23 6 26 -2
3 -16 -18 -30 -46z"/>
<path d="M5070 2865 c0 -17 -6 -25 -17 -25 -11 0 -14 -3 -7 -8 6 -4 14 -17 18
-29 7 -23 36 -33 36 -12 0 5 -5 7 -10 4 -7 -4 -9 11 -6 44 3 28 0 51 -5 51 -5
0 -9 -11 -9 -25z"/>
<path d="M1815 2860 c28 -12 37 -12 30 0 -3 6 -16 10 -28 9 -21 0 -21 -1 -2
-9z"/>
<path d="M4112 2823 c-35 -25 -61 -48 -58 -51 3 -2 13 1 22 8 13 12 17 11 25
-1 4 -8 6 -22 3 -31 -10 -32 5 -19 26 23 22 41 21 69 0 30 -6 -12 -16 -18 -22
-15 -7 5 -3 14 11 26 13 10 27 16 31 13 4 -3 15 6 24 20 23 35 11 30 -62 -22z"/>
<path d="M2040 2850 c-12 -8 -12 -10 -1 -10 11 0 10 -5 -4 -20 -10 -11 -16
-20 -12 -20 3 0 11 -2 19 -5 9 -4 14 5 15 30 3 39 4 38 -17 25z"/>
<path d="M4912 2844 c-28 -19 -29 -54 -2 -61 21 -6 24 -12 14 -37 -8 -21 -34
-20 -34 1 0 12 -3 14 -11 6 -16 -16 -2 -33 27 -33 27 0 30 5 43 72 10 57 -3
76 -37 52z m28 -18 c0 -7 -6 -19 -14 -25 -19 -16 -32 5 -16 24 16 19 30 19 30
1z"/>
<path d="M5147 2849 c-9 -6 -17 -18 -17 -28 0 -21 23 -44 33 -34 4 3 7 -3 7
-15 0 -11 -4 -24 -10 -27 -5 -3 -10 -11 -10 -18 0 -31 33 26 37 65 6 50 -10
73 -40 57z m23 -29 c0 -11 -7 -20 -15 -20 -15 0 -21 21 -8 33 12 13 23 7 23
-13z"/>
<path d="M1800 2840 c0 -5 12 -10 28 -9 24 0 25 1 7 9 -27 12 -35 12 -35 0z"/>
<path d="M4992 2838 c-31 -31 -1 -71 35 -48 16 10 16 11 -4 7 -13 -3 -25 -1
-28 3 -9 14 7 41 21 36 8 -3 14 -1 14 4 0 14 -24 12 -38 -2z"/>
<path d="M5215 2820 c-7 -33 -1 -50 21 -50 8 0 15 -11 15 -27 2 -27 2 -27 6
-3 2 14 11 40 21 57 12 25 14 35 5 44 -9 9 -15 2 -27 -25 -18 -43 -38 -40 -29
4 7 39 -3 39 -12 0z"/>
<path d="M1910 2822 c0 -4 30 -18 68 -31 99 -36 98 -35 87 -24 -14 15 -155 64
-155 55z"/>
<path d="M1625 2791 c-3 -6 0 -11 7 -11 9 -1 7 -5 -4 -14 -23 -17 -23 -22 1
-29 14 -3 19 0 19 12 -1 9 1 22 3 30 5 16 -17 26 -26 12z"/>
<path d="M1943 2769 c-4 -12 -17 -43 -30 -68 l-25 -46 24 23 c13 12 32 22 41
22 24 0 48 39 37 60 -15 29 -41 33 -47 9z m34 -15 c4 -10 -1 -22 -12 -30 -23
-17 -28 -13 -19 20 7 29 22 34 31 10z"/>
<path d="M4232 2710 c-24 -28 -39 -50 -34 -50 5 0 17 9 27 20 17 19 19 19 37
4 19 -18 26 -6 7 13 -8 8 -8 17 1 33 l12 22 24 -23 c13 -12 24 -18 24 -12 0
12 -33 43 -46 43 -5 -1 -28 -23 -52 -50z"/>
<path d="M4623 2748 c-12 -6 -27 -23 -33 -39 -23 -54 10 -79 50 -37 l20 22 0
-27 c0 -30 17 -44 33 -28 8 8 6 11 -7 11 -15 0 -17 6 -11 40 5 27 3 46 -5 55
-14 17 -17 17 -47 3z m37 -18 c0 -16 -30 -58 -46 -64 -20 -8 -19 38 2 58 17
18 44 21 44 6z"/>
<path d="M4182 2734 c10 -10 20 -16 22 -13 3 3 -5 11 -17 18 -21 13 -21 12 -5
-5z"/>
<path d="M4160 2722 c0 -12 19 -26 26 -19 2 2 -2 10 -11 17 -9 8 -15 8 -15 2z"/>
<path d="M4730 2711 c0 -5 11 -8 25 -8 14 0 25 3 25 8 0 5 -11 9 -25 9 -14 0
-25 -4 -25 -9z"/>
<path d="M4820 2700 c0 -11 747 -6 758 4 3 3 -166 6 -376 6 -249 0 -382 -3
-382 -10z"/>
<path d="M4738 2683 c6 -2 18 -2 25 0 6 3 1 5 -13 5 -14 0 -19 -2 -12 -5z"/>
<path d="M1956 2664 c-10 -25 1 -29 14 -5 6 12 7 21 1 21 -5 0 -12 -7 -15 -16z"/>
<path d="M5046 2635 c-10 -49 -2 -54 21 -13 l18 33 3 -29 4 -29 24 29 25 29
-6 -27 c-3 -16 -1 -28 5 -28 5 0 10 13 10 30 0 29 -1 29 -42 26 -24 -2 -46 1
-49 6 -4 6 -10 -7 -13 -27z"/>
<path d="M955 2651 l-40 -5 48 -5 49 -6 -21 -24 c-12 -13 -21 -28 -21 -33 0
-4 -11 -8 -24 -8 -46 0 -78 -62 -39 -77 11 -4 25 4 43 25 l27 32 13 -25 c7
-14 17 -25 22 -25 10 0 2 16 -20 43 -20 22 -3 62 33 79 14 6 25 15 25 19 0 8
-27 20 -43 17 -7 -1 -30 -4 -52 -7z m5 -99 c0 -15 -41 -53 -51 -47 -13 9 -11
21 7 39 16 17 44 22 44 8z"/>
<path d="M4292 2648 c-8 -8 -8 -15 -1 -24 6 -7 7 -19 3 -25 -5 -9 -11 -7 -21
6 -11 16 -13 16 -13 3 0 -18 26 -31 42 -22 5 3 7 18 3 32 -5 22 -4 24 9 13 9
-8 16 -9 16 -3 0 19 -26 32 -38 20z"/>
<path d="M4860 2615 c-23 -24 -16 -37 7 -14 8 8 10 0 7 -32 -4 -43 -4 -43 11
11 8 30 14 56 15 58 1 10 -21 -2 -40 -23z"/>
<path d="M5357 2623 c-4 -3 -7 -14 -7 -24 0 -9 -6 -20 -12 -22 -8 -3 -9 -6 -2
-6 6 -1 9 -12 6 -26 -4 -25 11 -35 23 -15 3 6 1 10 -5 10 -6 0 -8 5 -4 12 8
12 17 78 11 78 -2 0 -7 -3 -10 -7z"/>
<path d="M5464 2614 c4 -9 1 -23 -5 -30 -9 -11 -8 -14 4 -14 15 0 30 37 21 52
-9 15 -26 8 -20 -8z"/>
<path d="M252 2596 c-1 -11 -17 -32 -34 -47 -18 -16 -28 -28 -22 -29 6 0 17 7
24 15 18 21 30 19 30 -7 0 -12 -14 -34 -32 -49 -18 -16 -28 -28 -22 -29 6 0
17 7 24 15 17 20 30 19 30 -3 0 -10 -13 -31 -30 -47 -16 -16 -28 -31 -25 -33
3 -3 16 5 30 18 24 22 25 22 25 4 0 -11 -13 -33 -30 -49 -16 -16 -28 -31 -25
-33 3 -3 16 5 30 18 l25 23 0 -31 c0 -23 -8 -36 -31 -52 -36 -26 -32 -39 5
-15 25 17 26 17 26 -3 0 -11 -15 -32 -32 -46 -35 -28 -27 -36 10 -10 21 14 22
14 22 -10 0 -16 -11 -34 -32 -50 -35 -28 -27 -36 10 -10 21 14 22 14 22 -10 0
-16 -10 -32 -31 -46 -16 -12 -28 -25 -25 -28 3 -3 14 2 24 11 25 23 32 21 32
-7 0 -16 -11 -32 -31 -46 -36 -26 -32 -39 5 -15 25 17 26 17 26 -3 0 -11 -15
-32 -33 -46 -36 -29 -30 -35 8 -10 24 16 25 16 25 -10 0 -17 -10 -33 -30 -48
-16 -12 -30 -26 -30 -31 0 -4 12 1 28 13 l27 22 3 -22 c3 -15 -8 -34 -29 -56
-36 -37 -29 -47 8 -12 l23 21 0 -24 c0 -15 -12 -37 -30 -54 -16 -16 -28 -31
-25 -33 3 -3 16 5 30 18 l25 23 0 -24 c0 -15 -12 -37 -30 -54 -16 -16 -28 -31
-25 -33 3 -3 16 5 30 18 l25 23 0 -31 c0 -23 -8 -36 -31 -52 -16 -12 -28 -25
-25 -28 4 -3 17 5 31 18 l25 23 0 -28 c0 -19 -11 -40 -32 -62 -18 -18 -27 -33
-22 -33 6 0 19 10 30 21 l19 21 6 -33 c6 -30 7 -28 8 16 l1 51 148 147 c82 81
155 147 163 147 8 1 28 7 44 15 l30 15 -32 -6 c-36 -6 -48 7 -33 36 6 12 7 20
1 20 -5 0 -15 -17 -21 -37 -9 -28 -52 -77 -156 -180 l-144 -142 0 385 c0 211
3 384 8 384 4 0 23 -4 41 -10 41 -11 55 -5 20 9 -16 7 96 10 337 10 321 1 363
-1 368 -15 3 -9 6 -52 6 -97 0 -73 -1 -79 -15 -61 -19 25 -19 15 0 -29 8 -20
15 -66 15 -102 l0 -65 -30 0 -30 0 0 -70 0 -70 69 0 68 0 7 53 c10 87 10 87
-29 87 l-35 0 0 64 c0 35 7 80 16 101 8 20 13 40 10 43 -3 2 -10 -6 -15 -19
-7 -18 -10 4 -10 84 l-1 107 -372 1 c-218 0 -365 4 -353 9 28 12 -1 13 -42 1
l-32 -9 -4 126 c-1 70 -4 118 -5 108z m858 -686 l0 -60 -60 0 -60 0 0 60 0 60
60 0 60 0 0 -60z"/>
<path d="M1020 1905 c0 -25 5 -45 10 -45 6 0 10 5 10 11 0 6 10 19 22 28 27
23 18 51 -17 51 -23 0 -25 -4 -25 -45z m43 20 c1 -5 -6 -11 -15 -13 -11 -2
-18 3 -18 13 0 17 30 18 33 0z"/>
<path d="M1410 2580 c0 -11 -6 -20 -12 -20 -9 0 -9 -3 -2 -8 6 -4 13 -15 17
-24 7 -19 37 -25 37 -7 0 5 -4 8 -9 5 -17 -11 -18 19 -2 31 11 8 12 12 4 13
-7 0 -13 7 -13 15 0 8 -4 15 -10 15 -5 0 -10 -9 -10 -20z"/>
<path d="M4950 2591 c0 -5 -6 -11 -14 -13 -11 -2 -11 -5 -2 -14 9 -8 16 -8 28
0 13 9 13 13 2 24 -8 7 -14 8 -14 3z"/>
<path d="M5260 2581 c-17 -33 -12 -51 14 -51 14 0 28 5 31 10 4 7 -3 8 -21 4
-23 -6 -26 -4 -21 10 4 10 7 20 7 22 0 2 7 4 16 4 8 0 12 5 9 10 -10 16 -23
12 -35 -9z"/>
<path d="M5388 2564 c-10 -22 -10 -28 5 -39 15 -11 16 -17 6 -39 -13 -28 -34
-34 -42 -13 -3 7 -6 5 -6 -5 -2 -31 45 -23 57 10 16 42 32 94 32 103 0 21 -41
7 -52 -17z m23 -17 c-8 -8 -11 -7 -11 4 0 20 13 34 18 19 3 -7 -1 -17 -7 -23z"/>
<path d="M5500 2569 c-14 -25 -6 -49 15 -49 12 0 14 -9 10 -42 l-5 -43 15 44
c8 24 21 52 30 61 17 19 20 50 5 50 -5 0 -16 -13 -25 -30 -9 -16 -20 -30 -27
-30 -6 0 -8 11 -4 30 7 35 1 39 -14 9z"/>
<path d="M5063 2573 c26 -2 68 -2 95 0 26 2 4 3 -48 3 -52 0 -74 -1 -47 -3z"/>
<path d="M1157 2563 c-11 -10 -8 -51 3 -58 5 -3 18 -1 27 4 16 9 16 10 -4 11
-14 0 -23 6 -23 15 0 9 10 20 23 25 21 8 21 9 1 9 -11 1 -24 -2 -27 -6z"/>
<path d="M1217 2564 c-10 -10 -9 -52 2 -58 20 -13 42 7 39 33 -3 25 -26 39
-41 25z m33 -30 c0 -8 -7 -14 -15 -14 -15 0 -21 21 -9 33 10 9 24 -2 24 -19z"/>
<path d="M1270 2538 c0 -15 5 -28 11 -28 5 0 8 4 5 9 -3 4 1 17 8 27 13 18 15
17 24 -16 9 -29 10 -31 11 -10 1 34 -11 49 -37 47 -17 -1 -22 -8 -22 -29z"/>
<path d="M1340 2556 c0 -9 7 -16 15 -16 8 0 15 -4 15 -10 0 -5 -5 -10 -12 -10
-6 0 -9 -3 -5 -6 3 -4 14 -4 23 0 12 4 13 10 6 19 -6 6 -10 17 -11 22 0 17
-31 18 -31 1z"/>
<path d="M5113 2531 c-22 -26 -22 -26 -23 -3 0 32 -16 27 -29 -9 -15 -44 -12
-60 4 -24 9 19 14 24 15 13 0 -22 8 -23 32 -1 17 15 18 14 18 -15 0 -18 4 -32
9 -32 6 0 4 90 -3 96 0 1 -11 -11 -23 -25z"/>
<path d="M1083 2543 c9 -2 25 -2 35 0 9 3 1 5 -18 5 -19 0 -27 -2 -17 -5z"/>
<path d="M610 2533 c0 -10 68 -9 77 1 3 3 -12 6 -35 6 -23 0 -42 -3 -42 -7z"/>
<path d="M1642 2468 l-2 -77 -112 -3 -113 -3 2 -25 c0 -14 2 -91 4 -172 l3
-148 108 0 108 0 0 -57 c0 -52 -1 -55 -15 -37 -8 10 -15 15 -15 11 0 -10 29
-67 35 -67 6 0 35 57 35 67 0 4 -7 -1 -15 -11 -14 -18 -15 -15 -15 37 l0 57
108 0 109 0 6 98 c4 53 7 132 7 175 l0 77 -115 0 -114 0 -4 78 -3 77 -2 -77z
m223 -245 c-4 -87 -9 -160 -12 -163 -2 -2 -33 -6 -68 -8 l-65 -4 0 56 0 56
-35 0 c-33 0 -35 2 -34 33 1 17 3 24 6 15 2 -10 9 -18 15 -18 5 0 7 7 4 16 -3
9 -9 27 -12 40 -8 33 -18 30 -32 -9 -14 -40 -15 -58 -2 -37 8 12 10 9 10 -12
0 -23 -4 -28 -25 -28 -24 0 -25 -3 -25 -55 l0 -55 -73 0 -74 0 -6 113 c-4 61
-7 133 -7 159 l0 47 108 4 c59 1 158 4 220 5 l114 2 -7 -157z m-225 -123 c0
-43 -3 -50 -20 -50 -17 0 -20 7 -20 50 0 43 3 50 20 50 17 0 20 -7 20 -50z
m66 28 c-3 -13 -6 -35 -6 -50 0 -23 -4 -28 -25 -28 -23 0 -25 3 -25 50 0 49 0
50 31 50 28 0 31 -3 25 -22z"/>
<path d="M1752 2333 c-18 -2 -30 -8 -27 -13 3 -4 14 -6 25 -3 11 3 26 1 33 -5
8 -7 18 -7 27 -1 13 8 13 10 0 19 -8 5 -17 9 -20 8 -3 -1 -20 -3 -38 -5z"/>
<path d="M1732 2253 c-6 -20 -9 -39 -6 -42 3 -3 7 5 11 17 7 30 17 28 29 -5
l11 -28 17 39 c9 22 15 44 13 50 -3 6 -11 -5 -19 -24 l-15 -35 -7 33 c-10 42
-20 41 -34 -5z"/>
<path d="M1093 2513 c9 -2 23 -2 30 0 6 3 -1 5 -18 5 -16 0 -22 -2 -12 -5z"/>
<path d="M610 2495 c0 -8 14 -21 30 -30 17 -9 30 -20 30 -26 0 -16 -29 -22
-45 -9 -10 8 -15 9 -15 2 0 -17 19 -24 46 -18 35 9 32 45 -6 59 -37 14 -40 32
-4 23 17 -5 23 -3 19 4 -10 16 -55 12 -55 -5z"/>
<path d="M335 2490 c-11 -18 6 -88 22 -94 9 -4 22 -1 29 5 19 15 18 48 -1 55
-8 4 -15 15 -15 25 0 20 -24 26 -35 9z m48 -54 c7 -16 -1 -26 -20 -26 -7 0
-13 9 -13 20 0 23 25 27 33 6z"/>
<path d="M690 2435 c0 -18 5 -25 20 -25 21 0 24 8 14 34 -10 25 -34 19 -34 -9z"/>
<path d="M1108 2434 c-3 -5 -9 -31 -13 -59 -7 -46 -6 -49 8 -30 l16 20 16 -20
c16 -20 16 -19 9 5 -16 59 -31 93 -36 84z m9 -56 c-3 -8 -6 -5 -6 6 -1 11 2
17 5 13 3 -3 4 -12 1 -19z"/>
<path d="M800 2103 c-124 -124 -214 -217 -200 -207 68 50 446 434 428 434 -2
0 -104 -102 -228 -227z"/>
<path d="M4374 2248 c-16 -18 -17 -21 -2 -15 13 5 20 -5 33 -44 9 -27 20 -49
24 -49 33 0 43 86 13 113 -25 23 -45 21 -68 -5z m60 -7 c18 -20 19 -78 2 -74
-8 1 -35 71 -36 91 0 9 20 -1 34 -17z"/>
<path d="M1103 2238 c-2 -5 10 -8 26 -8 17 0 31 3 31 8 0 4 -12 7 -26 7 -14 0
-28 -3 -31 -7z"/>
<path d="M4790 2230 c0 -5 7 -10 16 -10 15 0 15 -2 0 -25 -22 -33 -21 -35 17
-34 28 1 29 2 9 8 l-24 6 21 26 c11 15 17 29 14 33 -10 10 -53 7 -53 -4z"/>
<path d="M4265 2220 c-3 -5 -2 -10 4 -10 6 0 16 -19 22 -42 14 -48 29 -72 29
-45 0 20 11 22 28 5 8 -8 15 -8 27 2 8 7 15 17 15 22 0 6 -7 5 -15 -2 -21 -17
-45 -5 -45 24 0 13 -3 31 -6 40 -7 18 -49 22 -59 6z m50 -21 c6 -19 0 -38 -9
-28 -10 12 -16 49 -7 49 5 0 13 -9 16 -21z"/>
<path d="M1105 2208 c-2 -7 0 -29 4 -48 5 -19 9 -27 10 -17 1 9 7 17 15 17 16
0 31 34 21 50 -9 14 -45 12 -50 -2z m38 -4 c8 -8 -3 -34 -14 -34 -5 0 -9 9 -9
20 0 19 11 26 23 14z"/>
<path d="M4218 2204 c19 -13 22 -24 20 -57 -3 -49 -19 -52 -32 -8 -5 17 -12
31 -17 31 -4 0 -1 -20 8 -45 8 -25 18 -45 23 -45 13 0 30 26 36 58 7 37 -17
82 -43 82 -14 0 -13 -3 5 -16z"/>
<path d="M4055 2200 c-4 -6 -1 -9 7 -8 8 2 12 -5 11 -19 -2 -16 2 -21 12 -17
9 4 15 0 15 -10 0 -10 -8 -16 -22 -16 -15 0 -19 -3 -12 -10 17 -17 44 0 44 26
0 13 -4 24 -9 24 -5 0 -11 9 -14 20 -6 21 -22 26 -32 10z"/>
<path d="M4733 2180 c-11 -28 -1 -45 10 -17 3 6 6 -23 6 -65 l1 -77 -37 -6
c-209 -32 -323 -98 -323 -185 0 -17 54 -106 165 -270 l164 -243 -202 -137
c-250 -168 -228 -155 -221 -133 5 16 4 16 -10 -1 -30 -37 -15 -57 29 -40 10 4
12 9 7 13 -6 3 75 64 180 135 l191 129 -66 -79 c-36 -43 -111 -133 -166 -199
-56 -66 -104 -130 -107 -143 -17 -63 30 -139 113 -185 152 -82 398 -75 507 14
40 34 75 97 76 136 0 12 -68 123 -152 247 -84 124 -150 227 -147 230 8 8 338
-7 333 -15 -7 -12 0 -11 31 3 14 6 25 15 25 20 0 10 1 10 -217 8 -95 -1 -173
2 -173 6 0 3 55 72 123 152 216 259 237 289 237 338 0 34 -7 51 -32 79 -52 60
-186 115 -280 115 l-38 0 0 76 c0 47 4 73 10 69 13 -8 13 -2 -2 30 -15 32 -21
32 -35 -5z m16 -281 l-1 -100 -32 3 c-31 3 -31 4 -43 83 -18 122 -20 115 32
115 l46 0 -2 -101z m88 93 c9 -6 8 -29 -4 -100 -16 -90 -17 -92 -45 -92 l-28
0 0 100 0 100 33 0 c17 0 37 -4 44 -8z m-183 -54 c4 -29 9 -72 12 -95 l6 -42
-42 -11 c-23 -6 -43 -10 -44 -8 -9 11 -68 169 -65 172 8 7 95 34 110 35 12 1
18 -12 23 -51z m293 26 l41 -15 -35 -87 c-19 -48 -36 -88 -37 -89 -2 -2 -77
18 -84 23 -2 1 5 45 14 98 19 107 12 102 101 70z m-409 -102 c18 -43 32 -82
32 -86 0 -9 -52 -55 -62 -56 -5 0 -8 5 -8 12 0 6 -17 45 -37 86 l-38 73 30 25
c17 13 35 24 41 24 5 0 24 -35 42 -78z m512 42 c22 -20 40 -40 40 -45 0 -5
-19 -39 -41 -75 -23 -36 -39 -67 -36 -70 3 -3 22 23 43 57 33 53 40 59 42 39
4 -26 -21 -64 -61 -94 l-26 -20 -24 26 c-13 14 -31 29 -41 35 -16 9 -16 12 3
59 36 90 51 124 56 124 3 0 23 -16 45 -36z m-595 -100 c20 -37 34 -68 32 -71
-6 -6 -66 46 -77 68 -9 16 -5 69 5 69 2 0 20 -30 40 -66z m297 -71 l2 -58 3
58 c4 56 12 67 39 49 7 -4 14 -18 17 -32 4 -25 4 -25 6 3 1 31 2 31 54 16 33
-9 36 -12 27 -29 -13 -24 -2 -26 15 -3 11 15 15 15 44 -6 17 -12 31 -28 31
-35 0 -40 -271 -56 -380 -23 -85 26 -90 31 -58 64 l27 27 10 -27 c13 -35 23
-35 15 -1 -8 30 7 44 49 44 22 0 27 -4 27 -25 0 -14 4 -25 8 -25 5 0 7 14 4
30 -4 28 -2 30 27 30 31 0 31 0 33 -57z m-252 -39 c0 -19 -16 -10 -31 17 -10
19 -9 20 10 9 12 -6 21 -18 21 -26z m62 -54 c27 -54 27 -55 -5 -38 -30 16 -46
39 -47 66 0 38 26 24 52 -28z m468 46 c0 -3 -4 -8 -10 -11 -5 -3 -10 -1 -10 4
0 6 5 11 10 11 6 0 10 -2 10 -4z m-420 -27 c33 -10 40 -17 49 -52 5 -23 9 -43
7 -44 -1 -2 -16 2 -33 7 -21 8 -36 24 -50 55 -11 25 -18 45 -15 45 2 0 22 -5
42 -11z m390 5 c0 -13 -43 -65 -61 -75 -19 -10 -20 -9 -8 13 25 48 42 68 55
68 8 0 14 -3 14 -6z m-65 -31 c-31 -52 -43 -64 -74 -73 -36 -10 -35 -12 -15
38 13 34 21 41 57 49 23 6 43 11 45 12 2 0 -4 -11 -13 -26z m-219 7 c18 0 24
-5 24 -22 0 -49 -10 -65 -36 -60 -13 2 -24 7 -24 11 0 3 -4 23 -9 44 -8 32 -7
38 6 33 8 -3 26 -6 39 -6z m115 -42 c-15 -36 -23 -44 -49 -46 -32 -3 -32 -3
-32 42 l0 46 50 0 49 0 -18 -42z m-245 -26 c16 -10 46 -72 35 -72 -9 0 -34 31
-55 68 -8 13 3 16 20 4z m313 -42 c-18 -22 -34 -40 -37 -40 -7 0 29 54 46 68
27 21 24 14 -9 -28z m-227 6 c4 -6 8 -21 8 -34 0 -19 -3 -21 -19 -13 -10 6
-24 24 -30 41 -10 29 -9 31 12 24 12 -4 25 -12 29 -18z m187 -21 c-12 -20 -29
-35 -39 -35 -17 0 -18 4 -9 29 6 18 19 32 32 34 12 2 25 5 29 6 4 0 -2 -15
-13 -34z m-129 -5 c0 -20 -5 -30 -15 -30 -8 0 -15 3 -15 8 0 4 -3 17 -6 30 -5
18 -2 22 15 22 17 0 21 -6 21 -30z m67 0 c-8 -21 -18 -30 -34 -30 -25 0 -26 3
-17 38 5 16 14 22 34 22 27 0 28 -1 17 -30z m-138 -56 c15 -35 13 -43 -5 -19
-28 36 -36 55 -21 49 8 -3 19 -16 26 -30z m35 -10 c10 -38 0 -41 -19 -5 -13
26 -13 31 -1 31 7 0 17 -12 20 -26z m36 -10 c0 -13 -4 -24 -10 -24 -5 0 -10
14 -10 31 0 17 4 28 10 24 6 -3 10 -17 10 -31z m76 1 c-21 -32 -41 -34 -25 -2
13 23 31 39 38 32 2 -3 -4 -16 -13 -30z m-41 -5 c-9 -16 -18 -30 -20 -30 -3 0
-5 14 -5 30 0 23 4 30 20 30 20 0 20 -1 5 -30z m5 -50 c-6 -11 -13 -20 -16
-20 -2 0 0 9 6 20 6 11 13 20 16 20 2 0 0 -9 -6 -20z m-1 -234 c-13 -14 -16
-6 -23 54 l-6 55 19 -50 c10 -28 15 -54 10 -59z m20 62 c14 -23 18 -39 11 -43
-10 -6 -18 10 -35 65 -9 30 -5 27 24 -22z m-106 -7 c-17 -41 -33 -62 -33 -43
0 7 7 24 16 38 9 13 14 27 11 30 -3 3 -13 -8 -22 -25 -15 -31 -25 -39 -25 -22
0 16 39 58 53 58 13 0 13 -5 0 -36z m50 -13 c6 -40 4 -48 -9 -48 -14 0 -15 7
-10 38 3 20 6 43 6 51 0 28 7 6 13 -41z m-31 -10 c-2 -21 -8 -38 -13 -38 -12
0 -11 10 2 49 14 40 17 37 11 -11z m-94 -53 c-24 -41 -38 -52 -38 -30 0 20 41
76 51 69 4 -2 -1 -20 -13 -39z m242 -34 c0 -5 -6 -14 -14 -20 -12 -10 -16 -5
-26 24 -6 20 -9 43 -5 52 5 14 10 11 25 -15 11 -18 20 -36 20 -41z m-208 7
c-20 -54 -19 -53 -36 -39 -13 11 -12 17 6 47 30 51 51 46 30 -8z m157 -7 c11
-35 4 -50 -25 -51 -16 0 -26 83 -11 92 15 9 21 2 36 -41z m-109 25 c0 -43 -14
-76 -31 -76 -23 0 -23 7 -4 54 15 36 35 49 35 22z m50 -15 c0 -16 3 -36 6 -45
5 -12 -1 -16 -25 -16 -29 0 -30 2 -25 33 9 50 12 57 29 57 10 0 15 -10 15 -29z
m-191 -75 c-11 -20 -23 -36 -25 -36 -3 0 -9 10 -13 23 -7 17 -3 28 17 50 36
38 51 13 21 -37z m339 4 l22 -39 -22 -21 c-25 -23 -31 -19 -48 33 -9 30 -9 41
0 52 18 22 23 19 48 -25z m32 -12 c0 -17 -10 -6 -25 25 l-16 32 20 -25 c11
-14 21 -28 21 -32z m-318 -29 c-14 -42 -18 -47 -34 -38 -30 16 -31 34 -7 72
19 28 26 33 40 24 15 -9 15 -14 1 -58z m230 0 l17 -50 -25 -10 c-40 -15 -54
-11 -54 15 0 13 -3 37 -6 54 -5 26 -3 31 17 35 13 2 27 5 30 6 3 0 12 -22 21
-50z m-159 34 c2 -5 -1 -32 -6 -61 -8 -48 -11 -52 -30 -46 -38 11 -41 21 -23
69 12 31 23 45 36 45 10 0 21 -3 23 -7z m-187 -98 c-16 -27 -31 -52 -32 -53
-1 -2 -10 10 -19 28 -16 31 -16 32 21 76 36 45 37 45 48 22 10 -20 8 -30 -18
-73z m264 71 c0 -13 3 -38 6 -55 l7 -31 -47 0 c-40 0 -47 3 -43 18 3 9 8 34
12 55 5 33 9 37 35 37 25 0 30 -4 30 -24z m199 -18 c8 -13 20 -33 28 -45 8
-12 10 -24 5 -27 -5 -3 -21 17 -36 44 -27 49 -24 71 3 28z m21 -101 c0 -11
-47 -57 -59 -57 -6 0 -18 25 -27 55 l-18 55 24 25 24 25 28 -47 c15 -27 28
-52 28 -56z m-415 67 l24 -16 -20 -51 c-12 -29 -22 -53 -23 -55 -6 -5 -66 33
-66 42 0 9 52 96 58 96 1 0 14 -7 27 -16z m320 -82 c9 -29 15 -55 14 -56 -5
-4 -103 -25 -105 -23 -1 1 -4 28 -5 61 l-4 58 35 12 c19 7 38 10 41 7 4 -3 14
-30 24 -59z m-448 25 l20 -33 -23 -34 c-13 -19 -25 -39 -28 -44 -2 -8 -8 -7
-16 1 -20 19 -17 85 5 115 11 15 21 28 22 28 0 0 10 -15 20 -33z m221 -41 c-6
-28 -12 -53 -14 -55 -2 -2 -22 1 -44 8 -44 13 -45 14 -14 87 13 31 15 32 47
22 l34 -10 -9 -52z m116 17 c13 -82 13 -83 -55 -83 -53 0 -60 2 -55 18 2 9 8
36 11 60 7 42 7 42 50 42 41 0 43 -1 49 -37z m276 -40 c0 -13 -2 -23 -4 -23
-9 0 -46 72 -46 88 1 26 50 -38 50 -65z m-40 5 c11 -18 20 -41 20 -50 0 -17
-56 -88 -69 -88 -4 0 -15 24 -24 53 l-17 52 33 31 c17 18 33 32 35 33 1 1 11
-14 22 -31z m-507 0 c18 -13 33 -23 35 -24 1 0 -8 -29 -21 -63 l-23 -62 -42
31 c-23 16 -42 34 -42 39 0 10 52 100 58 101 2 0 17 -10 35 -22z m95 -41 c24
-7 43 -16 44 -20 1 -27 -15 -127 -21 -127 -17 0 -111 31 -111 37 0 6 42 123
44 123 0 0 20 -6 44 -13z m326 -44 c9 -26 16 -52 16 -58 0 -11 -87 -45 -115
-45 -16 0 -25 32 -25 86 0 40 1 41 43 51 23 6 47 11 54 12 6 0 18 -20 27 -46z
m-140 -4 c3 -17 6 -49 6 -70 l0 -39 -62 0 c-88 0 -92 4 -79 75 6 32 11 60 11
62 0 2 26 3 59 3 58 0 59 -1 65 -31z"/>
<path d="M2296 2124 c-3 -9 -6 -27 -6 -40 0 -29 -19 -33 -21 -4 -2 33 -4 38
-11 46 -11 11 -10 -30 2 -61 14 -36 33 -27 44 21 5 21 14 42 20 46 7 5 5 8 -5
8 -9 0 -20 -7 -23 -16z"/>
<path d="M1945 2110 c-4 -6 16 -10 52 -10 41 0 54 3 43 10 -20 13 -87 13 -95
0z"/>
<path d="M2190 2116 c0 -2 -7 -20 -15 -40 l-15 -36 39 0 40 0 -17 40 c-9 22
-20 40 -24 40 -5 0 -8 -2 -8 -4z m15 -64 c-22 -5 -27 1 -19 23 7 17 8 17 21
-1 12 -17 12 -19 -2 -22z"/>
<path d="M4086 2104 c-51 -18 -60 -28 -18 -19 27 5 32 4 32 -12 0 -14 2 -15 9
-4 15 24 24 -8 11 -40 -7 -16 -11 -31 -9 -33 8 -8 59 6 59 16 0 5 -9 6 -20 3
-22 -7 -25 1 -11 24 12 19 -4 51 -27 52 -9 0 -1 7 18 14 22 9 28 13 15 14 -11
0 -38 -7 -59 -15z"/>
<path d="M3921 2062 c-1 -24 -6 -53 -12 -64 -11 -21 -12 -21 -25 -3 -8 10 -14
31 -14 46 0 15 -5 31 -11 35 -9 5 -10 -4 -4 -32 14 -75 45 -98 67 -49 10 23
12 23 25 7 8 -9 11 -11 7 -3 -4 7 -12 34 -19 60 l-13 46 -1 -43z"/>
<path d="M3975 2080 c-19 -8 -19 -9 2 -9 12 -1 25 4 28 9 7 12 -2 12 -30 0z"/>
<path d="M2000 2049 c0 -18 -2 -20 -16 -9 -12 11 -17 11 -29 -1 -25 -26 -23
-69 3 -69 10 0 24 6 31 13 11 10 14 10 18 0 3 -7 11 -13 19 -13 10 0 9 5 -5
19 -16 16 -18 26 -11 50 5 19 5 31 -1 31 -5 0 -9 -10 -9 -21z m-14 -30 c7 -12
-22 -46 -32 -37 -8 9 5 48 16 48 5 0 12 -5 16 -11z"/>
<path d="M3975 2050 c-7 -12 2 -12 30 0 19 8 19 9 -2 9 -12 1 -25 -3 -28 -9z"/>
<path d="M5870 2053 c-8 -2 -22 -7 -30 -9 -13 -5 -12 -7 3 -15 9 -6 22 -7 28
-3 8 4 9 -1 4 -17 -5 -18 -2 -16 14 9 12 18 21 35 21 37 0 6 -20 5 -40 -2z"/>
<path d="M5279 2024 c-21 -22 -24 -35 -24 -97 1 -62 6 -81 34 -137 19 -36 42
-87 52 -115 11 -29 18 -41 19 -28 0 28 17 38 35 23 11 -9 15 -9 15 -1 0 6 -4
11 -8 11 -21 0 -72 61 -102 120 -44 86 -48 174 -11 214 50 53 151 24 252 -72
38 -35 69 -68 69 -72 0 -3 -29 -26 -65 -50 -83 -57 -76 -66 9 -10 36 23 70 39
76 35 22 -14 79 -147 85 -199 8 -61 -11 -118 -45 -136 -51 -27 -168 25 -252
113 -26 27 -48 46 -48 40 0 -20 121 -124 172 -148 125 -59 196 -12 185 123 -4
47 -15 84 -43 140 -22 43 -40 80 -42 83 -2 4 45 39 103 79 59 39 104 74 101
77 -2 3 -52 -27 -110 -67 l-106 -72 -68 64 c-81 76 -143 108 -210 108 -39 0
-53 -5 -73 -26z"/>
<path d="M2070 2030 c0 -5 11 -10 25 -10 14 0 25 5 25 10 0 6 -11 10 -25 10
-14 0 -25 -4 -25 -10z"/>
<path d="M2193 2013 c32 -2 81 -2 110 0 29 2 3 3 -58 3 -60 0 -84 -1 -52 -3z"/>
<path d="M2083 2003 c9 -2 23 -2 30 0 6 3 -1 5 -18 5 -16 0 -22 -2 -12 -5z"/>
<path d="M1830 1980 c0 -5 -13 -10 -30 -10 -16 0 -30 -4 -30 -10 0 -5 14 -10
30 -10 17 0 30 -4 30 -10 0 -5 -6 -10 -14 -10 -16 0 -29 -27 -20 -41 3 -5 12
-9 20 -9 19 0 15 -41 -4 -48 -8 -2 -10 2 -5 14 4 12 3 15 -5 10 -15 -9 -16
-33 -2 -41 22 -14 40 17 40 70 0 38 4 55 15 59 20 7 19 19 -5 34 -12 7 -20 8
-20 2z m-13 -82 c-3 -8 -6 -5 -6 6 -1 11 2 17 5 13 3 -3 4 -12 1 -19z"/>
<path d="M2272 1970 c-17 -46 21 -106 44 -68 5 8 2 9 -11 5 -15 -6 -17 -3 -12
20 2 16 1 37 -3 48 -7 19 -8 19 -18 -5z"/>
<path d="M2185 1950 c-22 -42 -19 -50 20 -50 19 0 35 5 35 10 0 13 -29 70 -35
70 -2 0 -11 -13 -20 -30z m35 -22 c0 -5 -7 -8 -15 -8 -17 0 -18 2 -9 25 5 13
8 14 15 3 5 -7 9 -16 9 -20z"/>
<path d="M1706 1933 c-10 -10 -7 -53 4 -53 6 0 10 10 11 23 1 20 2 19 14 -8
12 -26 14 -27 15 -8 0 32 18 38 23 8 4 -23 4 -23 3 2 -1 21 -6 28 -22 29 -12
1 -26 4 -31 7 -6 4 -13 4 -17 0z"/>
<path d="M5825 1870 c-4 -17 -9 -29 -13 -26 -9 10 -32 -15 -32 -35 0 -10 5
-21 10 -24 19 -12 38 14 45 61 8 53 0 71 -10 24z m-15 -55 c0 -8 -4 -15 -10
-15 -5 0 -10 7 -10 15 0 8 5 15 10 15 6 0 10 -7 10 -15z"/>
<path d="M5856 1833 c-4 -21 -9 -46 -12 -55 -3 -10 -1 -18 5 -18 6 0 11 7 11
15 0 10 10 15 26 15 24 0 26 3 20 31 -3 17 -6 35 -6 40 0 5 -8 9 -19 9 -14 0
-21 -10 -25 -37z m34 23 c0 -3 -4 -8 -10 -11 -5 -3 -10 -1 -10 4 0 6 5 11 10
11 6 0 10 -2 10 -4z m8 -44 c2 -7 -3 -12 -12 -12 -9 0 -16 7 -16 16 0 17 22
14 28 -4z"/>
<path d="M608 1823 c12 -2 30 -2 40 0 9 3 -1 5 -23 4 -22 0 -30 -2 -17 -4z"/>
<path d="M2596 1798 c-19 -27 -20 -40 -4 -56 7 -7 17 -8 29 -2 11 7 20 7 24 0
3 -5 11 -10 18 -10 8 0 8 3 -1 12 -7 7 -12 21 -12 33 0 21 -17 45 -31 45 -5 0
-15 -10 -23 -22z m34 -7 c0 -17 -12 -41 -21 -41 -10 0 -12 33 -2 43 9 10 23 9
23 -2z"/>
<path d="M1497 1803 c-4 -3 -6 -27 -6 -52 1 -30 3 -36 6 -18 3 19 10 27 26 28
17 1 18 2 5 6 -28 7 -21 31 10 36 26 4 26 4 -4 6 -17 0 -34 -2 -37 -6z"/>
<path d="M2268 1798 c-3 -7 -2 -51 1 -98 5 -70 8 -79 15 -52 9 39 18 40 40 7
16 -24 46 -34 46 -15 0 5 -6 7 -13 4 -18 -6 -48 48 -37 66 14 21 12 74 -2 88
-16 16 -45 15 -50 0z m52 -42 c0 -23 -28 -69 -31 -51 -10 83 -7 104 16 85 8
-7 15 -22 15 -34z"/>
<path d="M4091 1796 c-14 -17 -7 -36 13 -36 9 0 12 -9 8 -25 -2 -15 0 -25 7
-25 6 0 12 16 13 35 0 19 1 41 2 47 1 19 -29 21 -43 4z m25 -23 c-10 -10 -19
5 -10 18 6 11 8 11 12 0 2 -7 1 -15 -2 -18z"/>
<path d="M584 1788 c-4 -6 6 -22 25 -37 18 -15 29 -30 25 -34 -11 -11 -44 -9
-44 3 0 6 -4 10 -10 10 -5 0 -7 -7 -3 -16 4 -10 16 -14 37 -12 38 4 44 38 9
53 -29 12 -31 39 -3 32 11 -3 20 -1 20 4 0 13 -48 11 -56 -3z"/>
<path d="M1398 1791 c10 -6 -1 -17 -39 -42 -52 -33 -61 -35 -151 -38 -46 -1
-48 -2 -48 -31 l0 -30 -76 0 c-47 0 -73 4 -69 10 9 15 -8 12 -31 -4 -19 -15
-19 -15 1 -30 24 -19 41 -21 27 -3 -8 9 6 11 69 9 l79 -4 0 -29 c0 -26 4 -29
30 -29 30 0 30 0 30 -56 0 -34 -4 -53 -10 -49 -14 9 -12 -8 3 -30 13 -17 15
-17 30 5 9 13 14 26 11 29 -3 3 -9 -1 -14 -9 -7 -10 -10 5 -10 48 l0 62 34 0
c30 0 34 4 40 31 3 17 6 48 6 68 1 33 6 39 61 74 56 35 60 36 54 15 -6 -22 -6
-22 9 -4 25 31 20 46 -16 46 -22 0 -28 -3 -20 -9z m-108 -151 l0 -60 -60 0
-60 0 0 60 0 60 60 0 60 0 0 -60z"/>
<path d="M3838 1768 c-28 -43 -41 -97 -28 -113 18 -22 80 -17 80 6 0 6 -9 5
-21 -1 -49 -27 -63 13 -28 81 18 35 22 39 36 27 14 -11 15 -11 11 2 -8 24 -34
23 -50 -2z"/>
<path d="M3566 1747 c-17 -12 -16 -16 9 -52 32 -47 40 -56 32 -32 -6 16 -3 18
23 12 19 -4 30 -3 30 4 0 6 -11 11 -25 11 -20 0 -25 5 -25 24 0 33 -22 49 -44
33z m34 -28 c0 -18 -2 -19 -15 -9 -8 7 -15 16 -15 21 0 5 7 9 15 9 9 0 15 -9
15 -21z"/>
<path d="M666 1734 c-3 -9 -4 -20 0 -25 7 -13 34 -11 34 2 0 5 -4 7 -10 4 -14
-9 -13 8 2 23 9 9 8 12 -4 12 -9 0 -19 -7 -22 -16z"/>
<path d="M891 1708 c1 -24 3 -35 6 -26 2 9 14 19 26 21 21 4 21 4 -1 6 -30 1
-24 23 9 32 21 6 21 7 -8 8 -32 1 -33 0 -32 -41z"/>
<path d="M1544 1738 c-5 -8 -2 -9 11 -4 18 7 18 6 0 -14 -18 -20 -18 -20 11
-19 16 0 24 3 18 5 -7 3 -10 14 -7 24 6 22 -21 28 -33 8z"/>
<path d="M5780 1740 c37 -12 140 -12 140 0 0 6 -34 10 -82 9 -57 -1 -75 -4
-58 -9z"/>
<path d="M2408 1723 c6 -2 18 -2 25 0 6 3 1 5 -13 5 -14 0 -19 -2 -12 -5z"/>
<path d="M2625 1720 l-160 -6 168 -2 c106 -1 167 2 167 8 0 6 -3 9 -7 8 -5 -1
-80 -5 -168 -8z"/>
<path d="M3920 1720 c0 -5 17 -10 38 -10 27 0 33 3 22 10 -20 13 -60 13 -60 0z"/>
<path d="M3510 1707 c0 -13 44 -87 53 -87 8 0 -13 44 -37 75 -8 11 -16 16 -16
12z"/>
<path d="M5815 1687 c-4 -14 -16 -27 -27 -30 -24 -7 -22 -50 3 -55 13 -2 20
10 29 48 7 28 10 54 7 57 -3 3 -9 -6 -12 -20z m-19 -64 c-10 -10 -19 5 -10 18
6 11 8 11 12 0 2 -7 1 -15 -2 -18z"/>
<path d="M5860 1690 c0 -11 -5 -20 -10 -20 -6 0 -8 -11 -4 -27 9 -38 21 -50
36 -35 9 9 8 12 -5 12 -9 0 -17 7 -17 15 0 8 4 15 8 15 5 0 9 14 9 30 0 17 -4
30 -9 30 -4 0 -8 -9 -8 -20z"/>
<path d="M2408 1693 c6 -2 18 -2 25 0 6 3 1 5 -13 5 -14 0 -19 -2 -12 -5z"/>
<path d="M2721 1686 c-7 -9 -8 -17 -3 -20 6 -3 12 1 15 8 3 8 21 16 39 19 l33
4 -36 1 c-21 1 -42 -4 -48 -12z"/>
<path d="M4058 1693 c28 -2 76 -2 105 0 28 2 5 3 -53 3 -58 0 -81 -1 -52 -3z"/>
<path d="M940 1668 c0 -19 2 -20 10 -8 13 19 13 30 0 30 -5 0 -10 -10 -10 -22z"/>
<path d="M3938 1683 c12 -2 30 -2 40 0 9 3 -1 5 -23 4 -22 0 -30 -2 -17 -4z"/>
<path d="M2483 1673 c-7 -3 -13 -12 -12 -21 0 -11 2 -12 6 -4 7 19 33 14 33
-6 0 -10 -11 -33 -25 -52 -14 -19 -25 -35 -25 -37 0 -2 17 -2 38 -2 30 2 32 3
9 6 l-27 4 20 26 c32 41 20 99 -17 86z"/>
<path d="M2740 1656 c0 -13 -6 -27 -12 -29 -8 -3 -6 -6 5 -6 10 -1 17 6 17 16
0 15 2 14 15 -3 14 -18 14 -17 15 14 0 25 -4 32 -20 32 -14 0 -20 -7 -20 -24z"/>
<path d="M4147 1662 c-10 -10 -17 -28 -17 -39 0 -11 -6 -26 -14 -32 -12 -10
-15 -6 -18 25 -2 22 -9 39 -18 42 -13 5 -13 3 -1 -11 7 -9 11 -25 8 -36 -2
-10 -1 -25 4 -32 13 -21 42 2 52 42 5 19 14 37 20 41 6 4 9 9 6 13 -3 3 -13
-3 -22 -13z"/>
<path d="M5246 1671 c-3 -5 -5 -20 -5 -32 1 -13 -1 -31 -5 -40 -10 -22 18 -43
49 -35 14 4 25 11 25 17 0 6 -8 6 -21 -2 -31 -16 -48 4 -30 33 10 16 10 23 2
26 -19 6 -12 22 10 22 11 0 17 5 14 10 -8 12 -32 13 -39 1z"/>
<path d="M3460 1634 l-25 -15 30 6 c28 6 29 6 10 -9 -11 -8 -18 -17 -15 -19 3
-3 13 1 23 8 13 9 16 18 10 28 -7 14 -11 14 -33 1z"/>
<path d="M2553 1624 c-3 -9 -1 -25 5 -35 15 -23 15 -32 2 -24 -5 3 -10 1 -10
-4 0 -15 27 -14 33 2 2 6 -3 20 -11 30 -13 15 -14 20 -3 26 9 6 10 11 2 15 -6
4 -14 0 -18 -10z"/>
<path d="M2631 1590 l1 -45 10 34 c6 23 6 37 -1 44 -8 8 -11 -2 -10 -33z"/>
<path d="M2658 1595 c2 -19 8 -35 14 -35 13 0 6 63 -8 67 -6 2 -8 -10 -6 -32z"/>
<path d="M3317 1573 c7 -66 -12 -72 -45 -15 -12 20 -22 30 -22 21 0 -22 38
-69 57 -69 8 0 17 9 20 20 5 20 7 20 24 4 11 -9 19 -12 19 -6 0 6 -5 14 -10
17 -6 3 -19 23 -30 43 l-19 37 6 -52z"/>
<path d="M2602 1580 c0 -19 2 -27 5 -17 2 9 2 25 0 35 -3 9 -5 1 -5 -18z"/>
<path d="M2738 1603 c18 -2 45 -2 60 0 15 2 0 4 -33 4 -33 0 -45 -2 -27 -4z"/>
<path d="M3390 1573 c0 -10 7 -26 14 -35 15 -20 31 -25 20 -6 -5 8 0 9 14 6
12 -4 22 -2 22 3 0 5 -8 9 -19 9 -10 0 -21 9 -24 20 -6 25 -27 27 -27 3z"/>
<path d="M2741 1541 c1 -30 2 -32 8 -12 4 14 13 27 20 29 10 3 12 -1 8 -17 -3
-11 -1 -24 5 -27 5 -4 8 7 6 27 -2 27 -8 34 -25 35 -20 1 -23 -3 -22 -35z"/>
<path d="M310 1531 c-21 -40 20 -68 60 -41 11 8 8 10 -15 8 -24 -2 -30 1 -30
17 0 11 6 19 13 18 6 -2 12 2 12 7 0 18 -29 11 -40 -9z"/>
<path d="M2610 1452 c-47 -19 -109 -37 -138 -40 -35 -3 -49 -8 -40 -13 8 -5
-11 -9 -49 -9 -69 0 -79 12 -48 57 8 12 11 23 5 25 -5 2 -57 2 -114 0 l-104
-3 14 -27 c28 -53 26 -54 -133 -49 -82 2 -159 7 -173 11 -19 6 -21 5 -10 -3
11 -8 -1 -11 -50 -13 l-65 -2 70 -6 c39 -4 62 -7 53 -8 -10 -1 -18 -7 -18 -12
0 -6 15 -4 36 5 27 11 74 15 174 15 134 0 138 -1 144 -22 12 -48 12 -48 -112
-48 -64 0 -133 4 -152 10 -20 6 -36 6 -40 1 -3 -5 -26 -11 -50 -14 l-45 -4 53
-1 c38 -1 51 -5 46 -14 -5 -8 -2 -9 12 -2 10 5 80 10 155 12 l136 3 5 -26 5
-26 -152 3 c-84 2 -151 -1 -148 -5 2 -4 -6 -6 -19 -4 -13 2 -39 0 -58 -4 -32
-6 -30 -6 18 -8 38 -1 51 -4 46 -13 -5 -8 -2 -9 12 -3 33 14 285 28 296 17 6
-6 8 -22 4 -37 l-7 -26 -147 1 c-226 2 -252 1 -252 -11 0 -7 18 -10 49 -7 27
1 48 1 46 -2 -2 -3 67 -3 152 -2 l155 4 -4 -29 -3 -28 -193 -1 c-106 -1 -196
-4 -199 -8 -4 -3 17 -6 46 -6 37 0 50 -3 45 -12 -5 -8 -2 -9 12 -2 10 5 79 10
153 12 120 3 133 1 127 -13 -3 -9 -6 -21 -6 -27 0 -12 -265 -6 -294 7 -13 6
-17 5 -12 -3 5 -8 -15 -12 -66 -15 l-73 -3 73 -2 c53 -1 71 -5 66 -14 -5 -8
-2 -9 12 -3 22 11 284 20 284 10 0 -3 -5 -15 -10 -26 -10 -18 -6 -19 105 -19
114 0 116 0 105 21 -7 11 -10 23 -7 25 8 8 87 -8 81 -17 -3 -5 10 -9 28 -9 24
0 73 -22 163 -74 72 -41 132 -73 134 -70 6 6 10 3 -139 88 -74 43 -146 85
-160 94 -14 10 -21 12 -16 4 6 -10 -3 -12 -46 -6 -62 8 -54 4 -62 32 -7 21 -5
22 56 22 44 0 59 -3 48 -10 -11 -7 -4 -9 25 -9 34 1 108 -22 258 -80 15 -6 27
-7 27 -2 0 5 -55 28 -122 51 -68 24 -138 51 -155 61 -18 10 -33 14 -33 9 0 -6
-25 -10 -55 -10 -50 0 -55 2 -61 25 -4 14 -5 27 -3 29 9 8 108 12 103 4 -3 -5
12 -6 33 -3 34 6 214 -34 277 -60 13 -6 17 -5 12 3 -17 28 -270 85 -363 83
l-63 -2 0 35 0 36 61 0 c43 0 58 -3 53 -12 -5 -8 -2 -9 12 -3 10 4 75 16 144
27 69 10 134 22 145 28 15 8 11 9 -20 4 -126 -20 -243 -30 -262 -23 -14 5 -23
5 -23 -1 0 -6 -25 -10 -55 -10 -52 0 -55 1 -55 25 0 24 3 25 55 25 31 0 55 -4
55 -10 0 -7 7 -7 21 0 11 6 73 26 137 45 64 18 128 37 142 43 50 21 -1 11
-122 -24 -86 -24 -133 -33 -156 -29 -23 4 -32 3 -27 -4 4 -7 -13 -11 -51 -11
-54 0 -56 1 -50 23 3 12 6 28 6 35 0 10 19 13 79 11 45 -2 85 2 93 8 7 6 44
21 83 33 88 29 176 69 150 68 -11 0 -58 -16 -105 -36z m-290 -3 c0 -8 -130
-89 -143 -89 -4 0 -7 10 -7 23 0 12 -7 34 -14 49 l-15 27 90 0 c49 -1 89 -5
89 -10z m-17 -62 c-4 -20 -21 -39 -57 -63 -28 -19 -54 -34 -58 -34 -5 0 -8 12
-8 28 0 23 10 33 63 64 34 20 63 35 64 35 1 -1 -1 -15 -4 -30z m-13 -82 c0
-23 -12 -34 -87 -79 -9 -5 -13 1 -13 21 1 22 10 34 43 55 53 33 57 33 57 3z
m-10 -83 c0 -23 -8 -32 -45 -50 -25 -12 -47 -22 -49 -22 -1 0 -1 12 2 28 2 19
15 34 40 49 48 29 52 28 52 -5z m10 -64 c0 -18 -15 -31 -61 -56 -45 -24 -60
-28 -55 -17 3 9 6 23 6 31 0 12 81 62 103 64 4 0 7 -10 7 -22z m9 -85 c1 -10
-80 -59 -151 -91 -4 -2 -2 13 5 33 10 28 25 43 72 70 53 30 61 32 67 17 4 -9
7 -23 7 -29z m20 -64 c2 -13 -53 -29 -97 -29 l-47 1 65 33 c57 30 66 32 72 17
4 -9 7 -19 7 -22z"/>
<path d="M2197 1434 c-16 -9 -27 -18 -24 -21 6 -5 67 24 67 32 0 8 -14 5 -43
-11z"/>
<path d="M1281 1418 c1 -29 3 -44 6 -33 3 11 12 26 21 33 14 11 14 12 -1 12
-25 0 -21 28 6 33 19 4 18 4 -5 6 -27 1 -28 0 -27 -51z"/>
<path d="M503 1365 c1 -41 5 -75 10 -75 4 0 7 16 7 35 0 28 4 35 19 35 11 0
23 5 26 10 4 6 -5 10 -19 10 -19 0 -26 5 -26 20 0 16 7 20 38 20 27 0 33 3 22
10 -8 5 -29 10 -47 10 l-31 0 1 -75z"/>
<path d="M807 1433 c-4 -3 -7 -21 -7 -39 0 -18 -6 -35 -12 -37 -10 -4 -10 -6
0 -6 7 -1 12 -14 12 -31 0 -16 5 -30 11 -30 7 0 10 12 7 30 -3 17 0 30 6 30 6
0 5 5 -2 12 -17 17 -15 58 3 58 8 0 15 5 15 10 0 11 -23 14 -33 3z"/>
<path d="M947 1423 c-3 -10 -9 -38 -13 -63 l-7 -45 -17 52 c-17 58 -30 76 -31
47 0 -10 -4 -43 -8 -71 -4 -29 -4 -53 1 -53 4 0 8 12 8 28 0 15 5 34 10 42 8
13 10 13 10 -2 0 -21 21 -68 30 -68 8 0 33 140 26 147 -2 3 -7 -4 -9 -14z"/>
<path d="M1335 1402 c16 -11 19 -45 3 -37 -10 6 -11 5 0 -6 16 -18 33 0 26 29
-4 12 -14 22 -23 22 -9 0 -12 -3 -6 -8z"/>
<path d="M3017 1392 c-33 -36 -47 -110 -27 -142 5 -8 26 -15 47 -16 21 0 46
-4 56 -9 9 -4 17 -3 17 3 0 5 -9 12 -20 15 -19 5 -19 7 -5 41 18 43 19 98 3
114 -17 17 -52 15 -71 -6z m67 -7 c6 -17 -8 -102 -18 -113 -4 -3 -12 0 -17 8
-8 12 -10 10 -6 -7 4 -19 1 -23 -18 -23 -31 0 -40 30 -24 78 20 63 68 96 83
57z"/>
<path d="M3624 1353 c-4 -21 -12 -41 -18 -45 -8 -5 -7 -8 2 -8 7 0 12 -13 12
-30 0 -25 4 -30 25 -30 14 0 25 4 25 9 0 5 -9 7 -20 4 -16 -4 -20 0 -20 20 0
14 6 28 13 30 9 4 9 6 -1 6 -9 1 -10 12 -6 41 8 51 -3 53 -12 3z"/>
<path d="M570 1340 c0 -5 4 -10 9 -10 5 0 12 -10 14 -22 l4 -23 2 23 c0 12 6
22 11 22 6 0 10 5 10 10 0 6 -11 10 -25 10 -14 0 -25 -4 -25 -10z"/>
<path d="M700 1330 c0 -15 7 -20 25 -20 14 0 25 5 25 11 0 6 -9 9 -20 6 -27
-7 -25 1 3 13 21 8 21 9 -5 9 -22 1 -28 -4 -28 -19z"/>
<path d="M631 1293 c1 -27 4 -39 6 -28 3 11 12 24 20 30 17 12 7 45 -13 45
-10 0 -14 -13 -13 -47z m16 15 c-3 -8 -6 -5 -6 6 -1 11 2 17 5 13 3 -3 4 -12
1 -19z"/>
<path d="M3517 1293 c-15 -29 -27 -55 -27 -58 0 -3 21 -5 46 -5 45 0 46 1 40
26 -4 15 -13 41 -20 58 l-13 31 -26 -52z m42 -34 c1 -12 -6 -15 -24 -11 -30 5
-30 5 -8 39 16 23 17 24 24 7 4 -11 8 -26 8 -35z"/>
<path d="M3251 1316 c-7 -8 -11 -27 -9 -43 2 -21 9 -29 27 -31 13 -2 28 1 34
7 7 7 1 10 -19 8 -25 -2 -29 2 -29 23 0 20 4 25 24 22 20 -2 22 0 11 13 -16
19 -24 19 -39 1z"/>
<path d="M3365 1320 c-4 -6 -11 -8 -16 -5 -5 4 -9 -12 -9 -34 0 -23 5 -41 10
-41 6 0 10 9 10 21 0 25 17 59 30 59 6 0 10 -18 10 -40 0 -22 4 -40 9 -40 5 0
11 18 15 40 9 54 24 50 29 -7 l3 -48 2 53 c2 39 -1 52 -12 52 -8 0 -18 -5 -22
-11 -4 -8 -9 -8 -17 0 -14 14 -34 14 -42 1z"/>
<path d="M3150 1310 c0 -5 11 -10 24 -10 14 0 28 5 31 10 4 6 -7 10 -24 10
-17 0 -31 -4 -31 -10z"/>
<path d="M3150 1280 c0 -5 11 -10 24 -10 14 0 28 5 31 10 4 6 -7 10 -24 10
-17 0 -31 -4 -31 -10z"/>
<path d="M5185 1268 c4 -13 14 -29 24 -36 15 -12 14 -14 -3 -28 -15 -11 -16
-14 -5 -14 19 0 39 42 38 78 -1 21 -2 22 -6 7 -9 -35 -22 -40 -32 -12 -13 33
-25 36 -16 5z"/>
<path d="M5580 1199 c18 -60 39 -98 27 -50 -8 34 9 54 33 38 18 -10 16 -15
-27 -67 -46 -54 -45 -54 25 14 39 39 69 72 66 75 -2 3 -12 -3 -21 -12 -15 -15
-20 -14 -60 23 -23 22 -47 40 -52 40 -5 0 -1 -27 9 -61z m30 10 c0 -5 -4 -9
-10 -9 -5 0 -10 7 -10 16 0 8 5 12 10 9 6 -3 10 -10 10 -16z"/>
<path d="M4324 1158 c4 -15 2 -30 -4 -33 -5 -3 -10 -11 -10 -17 0 -6 6 -6 15
2 12 10 19 10 27 2 20 -20 32 -13 14 7 -11 12 -14 21 -7 26 6 3 11 14 11 23 0
13 -2 13 -14 -3 -13 -18 -13 -18 -25 1 -11 17 -12 16 -7 -8z"/>
<path d="M3905 1150 c4 -6 -5 -10 -19 -10 -14 0 -26 -5 -26 -11 0 -7 10 -9 25
-5 16 4 25 2 25 -5 0 -8 4 -8 15 1 12 10 13 16 4 26 -13 16 -33 19 -24 4z"/>
<path d="M3814 1122 c-4 -17 -9 -31 -13 -30 -22 2 -40 -4 -45 -17 -9 -26 5
-45 34 -45 26 0 28 3 34 56 7 62 0 87 -10 36z m-6 -59 c-5 -26 -38 -29 -38 -4
0 15 6 21 21 21 14 0 19 -5 17 -17z"/>
<path d="M5663 1120 c1 -14 6 -29 10 -35 4 -5 14 -19 21 -29 14 -21 36 -14 36
12 0 15 -2 15 -10 2 -9 -13 -11 -13 -20 0 -6 8 -8 23 -6 33 2 9 0 15 -4 12 -5
-3 -13 3 -19 12 -9 16 -10 15 -8 -7z"/>
<path d="M1080 1105 c-9 -10 -9 -15 -1 -15 6 0 12 -15 12 -32 l1 -33 8 30 c16
62 8 83 -20 50z"/>
<path d="M1491 1078 c-25 -26 -38 -85 -24 -107 19 -30 56 -19 76 22 22 43 17
81 -13 97 -15 8 -23 6 -39 -12z m47 -35 c4 -44 -14 -75 -41 -71 -18 2 -22 9
-20 33 5 71 55 102 61 38z"/>
<path d="M3846 1069 c-3 -17 -6 -43 -5 -58 0 -26 0 -26 11 -3 6 12 17 22 24
22 18 0 28 38 14 55 -20 24 -37 17 -44 -16z m37 5 c8 -8 -3 -34 -14 -34 -5 0
-9 9 -9 20 0 19 11 26 23 14z"/>
<path d="M799 1041 c-33 -34 -30 -61 8 -61 22 0 23 -3 17 -37 -4 -21 -4 -35 0
-32 9 8 36 107 36 130 0 31 -30 30 -61 0z m51 1 c0 -16 -32 -52 -46 -52 -19 0
-18 19 3 42 16 18 43 25 43 10z"/>
<path d="M5400 1055 c0 -3 14 -32 30 -65 17 -33 27 -60 24 -60 -4 0 -22 10
-41 21 -19 12 -36 20 -37 18 -6 -7 44 -112 50 -106 3 3 -2 19 -10 36 -22 41
-20 44 15 26 17 -9 35 -15 40 -13 9 3 -55 148 -66 148 -3 0 -5 -2 -5 -5z"/>
<path d="M5515 1040 c-10 -11 -14 -20 -8 -20 5 0 18 9 28 20 10 11 14 20 8 20
-5 0 -18 -9 -28 -20z"/>
<path d="M3560 1043 c-25 -10 -30 -25 -28 -83 1 -35 3 -43 5 -22 4 28 8 32 36
33 30 2 31 2 5 6 -22 3 -28 10 -28 29 0 21 4 24 38 24 27 0 33 3 22 10 -17 11
-27 11 -50 3z"/>
<path d="M910 1033 c0 -6 -8 -14 -17 -16 -17 -4 -17 -5 0 -6 9 0 17 -5 17 -11
0 -5 5 -10 11 -10 5 0 7 5 4 10 -3 6 2 10 12 11 14 0 15 2 3 6 -8 3 -18 11
-22 17 -6 8 -8 8 -8 -1z"/>
<path d="M1270 1025 c-15 -18 -6 -45 15 -45 10 0 15 -10 16 -32 1 -30 2 -28
15 17 7 28 14 56 14 63 0 17 -45 15 -60 -3z m50 -4 c0 -12 -29 -35 -36 -28
-11 10 5 37 21 37 8 0 15 -4 15 -9z"/>
<path d="M5529 1018 c-12 -23 -12 -23 10 -4 23 21 26 26 11 26 -5 0 -15 -10
-21 -22z"/>
<path d="M970 1018 c0 -4 34 -8 75 -8 l75 0 -16 -25 c-22 -34 -10 -65 26 -65
16 0 32 5 36 11 5 9 -1 10 -21 5 -18 -5 -31 -3 -36 5 -10 17 8 49 27 49 8 0
12 5 9 10 -4 6 12 10 39 10 25 0 46 5 46 10 0 7 -47 10 -130 8 -71 -1 -130 -5
-130 -10z"/>
<path d="M1383 1023 c9 -2 23 -2 30 0 6 3 -1 5 -18 5 -16 0 -22 -2 -12 -5z"/>
<path d="M1370 1006 c0 -10 28 -13 41 -5 10 6 7 9 -13 9 -16 0 -28 -2 -28 -4z"/>
<path d="M1026 969 c-10 -53 -8 -59 24 -59 17 0 30 5 30 10 0 6 -10 10 -23 10
-20 0 -23 4 -19 35 5 43 -3 46 -12 4z"/>
<path d="M3643 973 c9 -2 23 -2 30 0 6 3 -1 5 -18 5 -16 0 -22 -2 -12 -5z"/>
<path d="M3720 969 c0 -6 17 -9 43 -7 41 3 42 2 45 -29 3 -28 0 -32 -25 -35
-22 -2 -29 -9 -31 -29 -3 -28 12 -40 44 -35 16 3 19 12 19 68 l0 65 63 -2 c34
-1 62 2 62 7 0 4 -49 8 -110 8 -72 0 -110 -4 -110 -11z m80 -99 c0 -13 -7 -20
-20 -20 -19 0 -27 20 -13 33 13 14 33 6 33 -13z"/>
<path d="M3640 950 c0 -5 11 -10 25 -10 14 0 25 5 25 10 0 6 -11 10 -25 10
-14 0 -25 -4 -25 -10z"/>
<path d="M3846 917 c-6 -25 -5 -47 3 -64 11 -25 31 -27 39 -5 2 7 -2 10 -12 6
-12 -5 -16 5 -18 48 l-3 53 -9 -38z"/>
<path d="M3085 866 c-112 -54 -110 -51 -82 -121 14 -33 27 -73 31 -90 l6 -30
-30 35 c-16 19 -30 31 -30 27 0 -12 53 -87 63 -87 19 0 -9 131 -39 177 -13 21
-12 24 29 47 23 14 63 34 90 46 44 20 58 30 39 30 -4 0 -39 -15 -77 -34z"/>
<path d="M1752 830 c-15 -24 -15 -33 -2 -25 7 4 10 -68 10 -208 0 -206 -1
-215 -19 -210 -10 3 -32 -2 -48 -11 l-30 -15 -88 125 c-48 69 -90 123 -92 120
-6 -5 19 -42 157 -236 53 -74 100 -141 104 -147 5 -10 -9 -13 -62 -13 l-69 0
5 53 c3 40 0 56 -12 66 -10 8 -16 9 -16 3 0 -6 5 -14 10 -17 11 -7 13 -48 4
-82 -6 -22 -8 -23 -223 -26 -119 -1 90 -2 464 -2 374 0 549 1 388 2 l-292 3
-6 33 c-4 18 -2 45 4 60 16 42 12 56 -6 23 -10 -19 -14 -44 -10 -73 l5 -43
-76 0 c-71 0 -74 1 -60 18 8 9 82 100 163 202 148 185 174 217 161 193 -4 -7
-3 -13 2 -13 9 0 24 51 17 58 -1 1 -14 -3 -29 -9 -16 -8 -25 -18 -21 -26 3 -8
-46 -77 -115 -163 l-120 -149 -40 16 -40 16 0 229 c0 150 3 227 10 223 15 -9
12 21 -3 33 -9 8 -16 6 -25 -8z m8 -532 l0 -71 -40 56 c-22 30 -40 60 -40 65
0 13 18 20 53 21 l27 1 0 -72z m63 20 c14 -12 12 -17 -18 -53 l-35 -40 0 53
c0 44 3 52 18 52 10 0 26 -6 35 -12z"/>
<path d="M3091 811 c-1 -19 2 -31 6 -27 4 4 15 -10 25 -31 9 -21 17 -31 17
-23 0 8 -10 38 -23 65 l-24 50 -1 -34z"/>
<path d="M3815 787 c-4 -14 -16 -27 -27 -30 -28 -8 -22 -61 8 -65 19 -3 22 3
29 53 7 59 1 86 -10 42z m-5 -56 c0 -23 -16 -36 -25 -21 -9 14 1 40 15 40 5 0
10 -9 10 -19z"/>
<path d="M3850 751 c0 -46 13 -72 28 -56 3 3 0 10 -7 15 -10 5 -12 20 -8 49 3
23 1 41 -4 41 -5 0 -9 -22 -9 -49z"/>
<path d="M3143 711 c-64 -28 -85 -41 -66 -41 17 0 159 69 143 69 -8 0 -43 -12
-77 -28z"/>
<path d="M3522 690 c-18 -47 -23 -70 -17 -70 3 0 11 14 17 30 9 28 11 29 23
13 13 -17 14 -17 20 0 12 28 24 19 28 -20 3 -35 4 -35 5 9 2 53 -11 70 -29 37
l-11 -22 -13 24 -13 24 -10 -25z"/>
<path d="M893 660 c0 -22 5 -30 19 -30 10 0 18 5 18 11 0 5 -5 7 -10 4 -7 -4
-9 2 -4 19 4 19 2 26 -8 26 -10 0 -15 -11 -15 -30z"/>
<path d="M2904 671 c-39 -24 -49 -40 -35 -54 8 -8 11 -6 11 6 0 10 16 27 35
38 19 12 35 23 35 25 0 8 -16 3 -46 -15z"/>
<path d="M3138 665 c-13 -30 5 -59 33 -52 19 5 29 -11 29 -49 0 -15 -6 -24
-15 -24 -8 0 -15 -5 -15 -11 0 -6 8 -9 18 -7 24 4 28 70 7 125 -19 48 -40 55
-57 18z m33 -38 c-14 -14 -26 17 -16 41 6 15 8 14 16 -7 6 -16 6 -28 0 -34z"/>
<path d="M3650 680 c0 -13 11 -13 30 0 12 8 11 10 -7 10 -13 0 -23 -4 -23 -10z"/>
<path d="M3743 668 c-2 -5 39 -8 91 -8 53 0 96 3 96 8 0 4 -41 7 -91 7 -50 0
-93 -3 -96 -7z"/>
<path d="M1451 617 c1 -28 3 -35 7 -22 4 11 16 22 27 23 27 5 27 5 -6 24 l-29
17 1 -42z"/>
<path d="M2918 653 c-5 -28 -1 -103 6 -103 5 0 6 24 3 53 l-5 52 19 -44 c24
-55 35 -49 12 7 -15 38 -30 54 -35 35z"/>
<path d="M3650 650 c0 -5 9 -10 20 -10 11 0 20 5 20 10 0 6 -9 10 -20 10 -11
0 -20 -4 -20 -10z"/>
<path d="M2751 632 c-7 -14 -6 -24 4 -38 13 -18 14 -17 12 10 -1 16 4 31 10
33 23 8 26 -28 7 -82 -10 -30 -16 -57 -13 -59 9 -9 83 21 88 35 3 11 1 11 -10
3 -8 -6 -25 -14 -38 -17 -21 -5 -22 -3 -16 21 4 15 8 45 9 67 1 34 -2 40 -21
43 -13 2 -26 -4 -32 -16z"/>
<path d="M3812 629 c-1 -17 -9 -29 -22 -32 -29 -7 -29 -67 0 -67 23 0 33 30
27 86 -2 24 -4 29 -5 13z m-12 -64 c0 -14 -4 -25 -10 -25 -11 0 -14 33 -3 43
11 11 13 8 13 -18z"/>
<path d="M3859 635 c-1 -8 -2 -28 -2 -45 0 -49 3 -60 13 -60 5 0 7 13 4 30 -4
18 -1 36 6 45 8 10 9 15 2 15 -6 0 -9 7 -6 15 4 8 1 15 -5 15 -6 0 -12 -7 -12
-15z"/>
<path d="M863 628 c-6 -7 -14 -26 -19 -43 l-8 -30 -4 38 c-3 37 -14 47 -28 25
-4 -6 -2 -14 4 -16 7 -2 12 -17 12 -33 0 -16 4 -29 8 -29 15 0 32 24 32 45 0
12 5 26 12 33 6 6 9 14 6 17 -3 3 -10 0 -15 -7z"/>
<path d="M1874 579 c-10 -23 -20 -36 -22 -30 -2 6 2 18 8 26 8 10 9 15 2 15
-14 0 -31 -31 -25 -47 6 -16 33 -17 33 -1 0 6 7 3 15 -8 15 -18 16 -17 10 13
-4 17 -1 41 5 52 6 12 7 21 2 21 -5 0 -17 -19 -28 -41z"/>
<path d="M501 584 c-34 -28 -39 -55 -16 -74 13 -11 21 -9 45 9 24 17 30 19 30
6 0 -8 8 -15 18 -14 10 0 12 3 5 6 -7 2 -13 22 -13 43 0 25 -5 40 -16 44 -21
8 -19 9 -53 -20z m59 -3 c0 -22 -47 -64 -63 -58 -22 8 -21 23 3 47 21 21 60
27 60 11z"/>
<path d="M2503 556 c-70 -39 -104 -73 -43 -41 16 8 33 15 38 15 5 0 23 -32 41
-72 17 -39 34 -69 36 -66 3 3 -10 39 -28 80 l-35 75 34 17 c19 8 34 20 34 26
0 5 -1 10 -2 9 -2 -1 -36 -20 -75 -43z"/>
<path d="M1662 563 c-4 -10 -16 -18 -27 -18 -14 0 -21 -8 -23 -27 -3 -25 0
-27 27 -25 21 1 30 6 26 15 -3 7 2 26 10 43 10 17 11 29 5 29 -6 0 -14 -8 -18
-17z m-31 -56 c-8 -8 -11 -7 -11 4 0 20 13 34 18 19 3 -7 -1 -17 -7 -23z"/>
<path d="M2674 565 c-10 -8 -14 -15 -8 -15 5 0 19 7 30 15 10 8 14 15 8 15 -5
0 -19 -7 -30 -15z"/>
<path d="M624 552 c-14 -9 -25 -42 -15 -42 5 0 12 8 16 18 7 15 9 14 15 -8 l8
-25 1 27 c1 29 -9 41 -25 30z"/>
<path d="M693 543 c9 -2 25 -2 35 0 9 3 1 5 -18 5 -19 0 -27 -2 -17 -5z"/>
<path d="M2684 535 c-24 -18 -7 -19 26 0 16 9 19 14 9 15 -8 0 -24 -7 -35 -15z"/>
<path d="M756 529 c3 -5 43 -9 90 -9 46 0 84 4 84 9 0 5 -40 9 -90 9 -49 0
-87 -4 -84 -9z"/>
<path d="M705 520 c-19 -8 -19 -9 3 -9 12 -1 22 4 22 9 0 6 -1 10 -2 9 -2 0
-12 -4 -23 -9z"/>
<path d="M1381 503 c-1 -37 14 -44 24 -12 8 23 20 16 28 -16 3 -15 5 -13 6 8
1 30 -26 49 -39 27 -6 -10 -9 -8 -13 6 -3 12 -5 6 -6 -13z"/>
<path d="M810 455 c0 -19 5 -35 10 -35 6 0 10 14 10 31 0 24 4 30 15 25 8 -3
15 -1 15 4 0 6 -11 10 -25 10 -22 0 -25 -4 -25 -35z"/>
<path d="M1462 465 c0 -16 2 -22 5 -12 2 9 2 23 0 30 -3 6 -5 -1 -5 -18z"/>
<path d="M4480 455 c-6 -8 -9 -23 -5 -34 3 -10 1 -22 -5 -26 -17 -10 -11 -43
9 -50 17 -5 71 9 71 19 0 2 -18 2 -40 -1 -47 -7 -53 8 -14 34 l26 17 -22 8
c-18 7 -20 11 -10 23 6 7 19 11 27 8 11 -4 14 -2 9 5 -10 16 -31 15 -46 -3z"/>
<path d="M5050 460 c0 -6 5 -8 10 -5 14 9 12 -19 -2 -33 -9 -9 -5 -12 18 -12
16 0 24 3 17 8 -6 4 -11 16 -10 27 1 11 -5 21 -15 23 -10 2 -18 -2 -18 -8z"/>
<path d="M3505 389 c-20 -73 -13 -92 9 -23 10 34 15 42 15 24 2 -48 16 -54 39
-18 l22 33 0 -37 c0 -20 5 -40 12 -44 8 -5 9 2 5 26 -4 18 -7 49 -7 69 l-1 36
-22 -43 c-24 -46 -37 -46 -37 -1 0 51 -17 40 -35 -22z"/>
<path d="M4351 390 l-22 -40 45 0 c25 0 46 2 46 5 0 15 -30 75 -38 75 -4 0
-18 -18 -31 -40z m46 -26 c-3 -3 -15 -4 -26 -2 -21 3 -21 4 -4 27 l17 25 9
-22 c6 -12 8 -25 4 -28z"/>
<path d="M4732 391 c-12 -21 -22 -41 -22 -45 0 -3 18 -6 40 -6 27 0 40 4 40
14 0 21 -21 76 -29 76 -4 0 -17 -17 -29 -39z m41 -11 c4 -16 0 -20 -19 -20
-22 0 -23 3 -14 20 6 11 15 20 19 20 5 0 11 -9 14 -20z"/>
<path d="M4974 416 c-12 -32 0 -61 29 -64 15 -2 27 1 27 7 0 6 -10 10 -22 8
-18 -2 -23 3 -23 23 0 20 4 25 23 23 13 -2 21 1 17 7 -9 15 -45 12 -51 -4z"/>
<path d="M4828 383 c4 -33 6 -35 13 -15 8 22 3 52 -10 52 -4 0 -5 -17 -3 -37z"/>
<path d="M4850 409 c0 -4 7 -6 15 -3 11 5 15 -2 16 -27 l1 -34 14 33 c8 17 18
32 23 32 6 0 12 -15 14 -32 l4 -33 1 37 2 36 -45 0 c-25 0 -45 -4 -45 -9z"/>
<path d="M4633 403 c9 -2 23 -2 30 0 6 3 -1 5 -18 5 -16 0 -22 -2 -12 -5z"/>
<path d="M4633 373 c9 -2 23 -2 30 0 6 3 -1 5 -18 5 -16 0 -22 -2 -12 -5z"/>
<path d="M1510 300 c-8 -28 -8 -46 0 -60 16 -29 19 -25 13 19 -3 21 0 48 6 60
7 13 8 21 2 21 -6 0 -15 -18 -21 -40z"/>
<path d="M2021 312 c7 -19 6 -38 -1 -56 -12 -34 -12 -36 0 -36 13 0 24 64 16
95 -4 14 -11 25 -16 25 -5 0 -5 -11 1 -28z"/>
<path d="M3091 325 c0 -11 2 -31 6 -44 6 -23 6 -22 19 8 17 40 34 40 34 -1 l1
-33 17 34 c25 51 42 51 43 -1 0 -37 2 -40 11 -21 15 31 2 73 -22 73 -10 0 -22
-5 -25 -10 -5 -8 -11 -7 -21 1 -11 9 -18 8 -33 -5 -18 -17 -19 -17 -24 1 -4
16 -5 16 -6 -2z"/>
<path d="M1555 300 c-10 -11 -13 -20 -7 -20 7 0 12 -12 12 -27 0 -39 13 -19
17 27 5 46 3 47 -22 20z"/>
<path d="M1972 308 c-15 -15 -16 -31 0 -22 8 5 9 -2 5 -24 -4 -18 -3 -32 2
-32 5 0 11 20 13 45 3 47 0 53 -20 33z"/>
<path d="M3343 303 c9 -2 25 -2 35 0 9 3 1 5 -18 5 -19 0 -27 -2 -17 -5z"/>
<path d="M3460 303 c0 -5 26 -7 57 -5 101 5 111 9 26 11 -46 0 -83 -2 -83 -6z"/>
<path d="M3353 283 c9 -2 23 -2 30 0 6 3 -1 5 -18 5 -16 0 -22 -2 -12 -5z"/>
<path d="M3234 265 c-7 -18 3 -35 22 -35 8 0 14 10 14 25 0 27 -27 35 -36 10z
m23 -17 c-3 -8 -6 -5 -6 6 -1 11 2 17 5 13 3 -3 4 -12 1 -19z"/>
<path d="M3490 273 c0 -5 -7 -29 -15 -55 -8 -27 -10 -48 -5 -48 5 0 12 16 16
35 7 37 24 48 24 16 0 -26 10 -51 21 -51 4 0 15 23 24 52 18 61 17 58 6 58 -5
0 -12 -18 -16 -40 -4 -22 -10 -40 -15 -40 -4 0 -10 18 -14 40 -3 22 -11 40
-16 40 -6 0 -10 -3 -10 -7z"/>
<path d="M3571 181 c-16 -29 -14 -46 3 -32 11 9 15 9 19 -1 3 -7 6 -1 6 14 1
34 -15 45 -28 19z"/>
</g>
</svg>
